<?xml version="1.0" encoding="UTF-8"?>
<svg version="1.1" viewBox="0 0 1600 1600" width="700" height="700" xmlns="http://www.w3.org/2000/svg">
<path transform="translate(0)" d="m0 0h1600v1600h-1600z" fill="#2B303A"/>
<path transform="translate(816,271)" d="m0 0h28l27 2 27 4 26 5 50 12 29 9 16 6 24 11 28 12 14 7 34 22 4 4v2h-8l-17-8-17-7-34-11-49-14-49-8-21-2-51-1-28 2-26 4-34 7-22 6-21 8-33 13-45 22-27 16-16 10-17 13-10 8-13 11-10 8-20 20-7 8-12 13-11 13-14 19-11 17-10 17-10 18-16 33-8 20-10 37-6 29-3 28v46l3 33 6 30 6 22 10 28 12 26 6 10 6 11 16 24 11 14 13 15 25 25 11 9 12 9 20 13 19 11 22 10 16 6 21 6 26 5 20 2h41l18-2 28-6 25-7 20-7 16-7 19-12 14-10 9-7h2v-2l9-7 10-9 8-7 3-3h2v-2h2l2-4 5-5h2l2-4 7-8 5-5 4-5h2l2-4 10-15 8-14 11-17 8-16 4-13 7-39 4-40 2 1 7 24 3 14 5 42v34l-3 22-6 24-8 21-10 22-6 11-10 16-11 16-3 4h-2l-2 5-33 33-19 14-19 13-16 10-31 14-25 9-20 6-29 6-24 3-17 1h-38l-22-2-37-6-21-5-22-8-33-14-24-14-12-8-13-10-11-8-10-8-13-11-16-15-19-19-8-10-10-13-10-15-13-20-12-22-11-22-8-19-14-40-10-42-4-27-3-30-1-18v-39l5-47 3-17 5-22 7-23 10-29 11-25 19-39 1-2h2l1-4 13-23 12-17 2-3h2l2-4 7-9 9-12h2l2-4 4-5 7-8 23-23h2l2-4 4-3h2v-2l7-6h2l1-3 4-3h2v-2l5-2v-2l12-9 10-8 11-7 11-8 21-12 21-11 9-4 23-10 31-11 38-10 25-6 17-2 18-1z" fill="#3275D9"/>
<path transform="translate(876,456)" d="m0 0h26l57 8 20 5 29 11 20 8 27 14 11 6 11 7 25 17 13 11 8 7 7 7 2 1v2h2l7 8 13 14 9 11 10 12 12 17 6 9 5 9 9 14 9 16 9 19 4 8 10 24 11 34 9 34 5 30 2 18 1 19v29l-2 49-2 22-7 36-5 20-5 18-9 27-10 23-17 33-15 23-12 17-13 16-11 14-18 18-8 7-12 11-8 7-10 9-19 14-18 13-15 10-26 14-32 16-12 5-21 7-22 6-14 4-30 5-14 1h-117l-24-1-36-4-19-3-6-2-18-3-18-6-2-2 4-7 1-5 8-1v2l38 1h66l39-4 35-6 32-9 16-5 17-6 35-14 19-10 24-13 33-22 14-11 10-8 14-12 13-12 26-26 7-8 10-12 14-19 12-18 11-19 11-23 10-25 9-27 6-24 5-23 5-40v-48l-3-28-5-28-6-23-5-15-4-10-9-21-12-24-13-18-9-14-14-18-11-12-7-8-6-5v-2l-4-2-15-15-9-7-2-1v-2l-4-2-9-6v-2l-5-2v-2l-5-2-10-7-11-6-18-8-24-8-23-6-27-5-11-1h-19l-31 3-24 5-27 9-12 5-24 11-16 9-10 7-18 12-11 9-12 11-24 24-7 8-12 13-12 17-12 20-8 17-7 21-5 22-1 10v28l3 41 4 24 3 9h-3l-6-7-7-12-8-16-6-14-5-17-4-19-2-8-3-20-1-20 1-32 3-21 7-23 6-15 3-8h2l2-9 8-14 8-13 4-8 9-13h2l2-4 8-11h2l2-4 18-20 13-12 10-9 17-13 15-10 18-10 21-11 39-15 15-5 36-7z" fill="#FECA77"/>
<path transform="translate(418,434)" d="m0 0h2v8l-5 13-13 24-9 16-8 16-9 17-6 12-12 28-13 37-6 24-6 29-3 29-2 36v52l2 23 5 30 4 18 4 17 6 22 6 21 9 25 9 21 16 31 14 22 12 17 9 11 13 15 10 11v2h2l7 8 16 15 5 5 11 10 20 15 13 10 13 8 17 10 16 9 23 10 24 10 19 6 24 5 21 3 38 3h28l24-2 33-5 31-6 24-7 25-10 17-8 23-13 22-14 11-9 14-11 11-11 8-7 11-11 9-11 12-15 13-20 6-10 8-16 9-20 12-36 5-24 2-16 1-14 7-3 10-2 14-5 3-1 1-8 2-4v-11l-4-26-8-36-8-26-6-13-8-15-11-17-14-23-9-10-8-10-10-9-4-4-5 1-3 4h-2l-2 4-3 13-3 1-19-19-16-12-13-8-29-15-20-9-23-9-14-4-20-4h-31l-27 4-20 5-5 2h-6l4-4 14-8 21-13 12-5 9-4 33-11 15-4 5-1 19-1 16 1 21 4 45 15 19 9 9 6 9 5 11 8 14 11 11 9v2l4 2 14 14 7 8 9 9 13 17 11 17 12 20 12 25 11 33 6 28 4 24 2 22v45l-5 34-3 17-2 7-2 10-3 9-6 20-4 10-2 7-1 2h-2v5l-4 8-5 11h-2l-2 7h-2l-2 7-3 4-1 3h-2l-2 5-3-1-1-3-3-2v-2h-5v2l-5 1v-3h-5l-4-1-4-2v-6l-4 5-9 13-10 13-11 14-9 10-20 20-8 7-18 14-16 11-19 13-20 12-23 11-29 11-31 11-23 5-37 5-27 2h-39l-36-3-29-4-26-6-29-9-19-7-27-12-16-8-16-9-17-12-6 3-1 6h-3l-1 3h-1v6l-4 4 1 2h-3l1 3-5 1 2 3-5-2-10-7-12-9-14-11-19-14-11-9-10-10-8-7-9-9-7-6-7-8-13-16-11-15-13-20-10-17-8-15-10-23-13-32-5-15-13-53-5-25-2-18-1-18v-38l2-22 4-26 3-17 4-26 5-19 10-31 8-24 6-13 6-15 4-9 4-11 4-7 3-7 14-27 18-30 7-11 11-17 10-15 6-8h2l2-4 9-11 6-7 1-2z" fill="#9CC47A"/>
<path transform="translate(867,344)" d="m0 0h33l24 1 41 4 18 3 32 7 18 6 12 5 10 4 11 4 8 4 13 5 16 8v2l5 1 4 2v2l6 1 10 7 21 14 19 14 4 3v2l5 2 9 8v2l4 2 8 7v2l4 2 8 7 5 6v2h2l7 8 5 5 7 8 5 5 5 6v2h2l3 5v2h2v2h2l2 6h2l4 6v2h2l5 7 8 14 2 1 5 9 5 8 7 13 12 22 14 31 9 23 4 11 5 18 7 32 4 17 3 16 2 28v68l-3 31-5 29-6 26-7 20-9 21-14 35-9 21-16 30-21 35-8 11-11 14-13 15-13 17-11 12-14 15-6 7-3-1 14-19 10-18 7-11 6-10 5-9 7-14h2l1-6 11-23 2-5h2l2-10 4-8 10-30 6-24 2-10 2-7 3-14 4-35 2-26h2l1-26 2-4 4 1 2 7 4 1 6 5 3 1 3 8-1 13-1 18 4-31 2-18 3-24 1-11v-36l-3-21-4-25-5-28-6-23-9-27-4-10-10-26-17-34-9-15-12-19-9-12-10-13-9-11-9-10-9-11-15-16-25-25-11-9-10-8-17-13-15-11-15-10-18-10-19-10-16-6-36-14-18-5-34-6-23-3-11-1h-37l-18 2-27 4-28 6-22 6-14 5-10 4-23 7-15 7-17 9-13 7-16 11-17 12-11 8h-2v2h-2v2l-11 9-7 6-7 8-12 11-13 15-12 14-14 19-7 10-6 12-4 6-6 12-5 9-3 8-5 14-5 11-7 20-6 18-3 11-3 24-1 1-1 7h-7l-6 2-14 4-3 2h-4l-1 3-6 5-1-1v-24l5-45 3-13 3-12 3-11 4-8 3-7 1-5h2l1-5 4-8 3-9 2-3h2l2-6 5-10 3-7h2l2-8 3-4h2l1-5h2l3-9 4-2 2-5 2-4 3-3 4-7h2l2-5 4-2 2-5 5-5 12-14 8-10 5-5 7-8 12-9 4-4h2v-2l4-1v-2l8-6h2l1-3 14-10 5-2v-2l14-10 8-4 14-9 26-14 26-11 5-1v-2l10-3 24-9 19-6 7-2 26-4 31-5 16-1z" fill="#FB6C60"/>
<path transform="translate(880,388)" d="m0 0h37l27 3 24 4 20 4 17 5 37 14 13 5 27 14 18 11 18 13 17 13 14 11 14 12 32 32 9 11 12 13 9 11 14 18 12 17 9 15 11 19 15 30 11 29 6 16 8 27 5 22 5 30 2 13 3 21v36l-3 30-2 11-4 36-2 9h-1v-10l2-20-1-7-1-4-5-1-5-5-3-1-2-3v-4h-4l-1 3-2 26h-1v-13l1-18v-28l-2-29-4-33-7-33-10-36-9-25-15-33-10-20-10-18-11-18-11-16-11-15-10-13-11-12-7-8-31-31-13-10-22-14-14-10-12-8-10-6-26-13-36-14-24-7-33-7-26-3-14-1h-17l-32 3-37 7-25 7-29 10-21 9-16 8-15 9-19 13-20 14-11 9-8 8-11 9-10 10-9 11-9 10-11 14-13 20-12 20-8 16-7 16-7 19-6 24-2 10-3 25-1 19v18l2 22 6 28 7 23 9 21 12 22 13 20 13 16 7 8 22 22 11 9 20 14 18 13 23 16 10 7v3l-16 5-4 4-8-1-16-6-16-10-15-11-21-14-7-6 1 4 5 2 5 4 4 5 5 5 5 8v16l1 6-5 1-14-5-11-7-10-8-17-12-8-7-9-7-9-10-5-4-9-11-8-8-13-17-9-14-13-24-12-26-12-36-5-21-5-31-2-18v-39l1-9h1v36l6-5 1-2 16-6 9-2 4-1 5 1v-7l1-1 3-24 8-26 6-18 5-12 7-18 5-12 8-14 4-8 6-10 5-9 14-19 24-28 7-8 15-14 5-5 13-12h2v-2h2v-2l19-13 18-13 10-7 16-8 15-8 8-4 17-6 17-5 18-7 26-7 35-7 22-3z" fill="#A01D21"/>
<path transform="translate(418,434)" d="m0 0h2v8l-5 13-13 24-9 16-8 16-9 17-6 12-12 28-13 37-6 24-6 29-3 29-2 36v52l2 23 5 30 4 18 4 17 6 22 6 21 9 25 9 21 16 31 14 22 12 17 9 11 13 15 10 11v2h2l7 8 16 15 5 5 11 10 20 15 13 10 13 8 17 10 16 9 23 10 24 10 19 6-1 9-3 4-7 26 6 2-4 1-29-9-19-7-27-12-16-8-16-9-17-12-6 3-1 6h-3l-1 3h-1v6l-4 4 1 2h-3l1 3-5 1 2 3-5-2-10-7-12-9-14-11-19-14-11-9-10-10-8-7-9-9-7-6-7-8-13-16-11-15-13-20-10-17-8-15-10-23-13-32-5-15-13-53-5-25-2-18-1-18v-38l2-22 4-26 3-17 4-26 5-19 10-31 8-24 6-13 6-15 4-9 4-11 4-7 3-7 14-27 18-30 7-11 11-17 10-15 6-8h2l2-4 9-11 6-7 1-2z" fill="#50BDEC"/>
<path transform="translate(725,688)" d="m0 0h20l22 5 19 8 10 6 10 9 11 14 4 8v3h2l2-6 7-10 9-10 8-7 13-8 16-7 5-2 12-2h15l16 3 15 6 11 7 13 12 6 8 3 6v2h2l6 13 3 10 1 14v12l-3 2-23 5-5 8-6 11-6 10-11 13-10 9-8 6-5 5h-2v2l-11 9-9 9-8 7-6 8h-2l-2 5-7 8-10 8-8 7h-2v2l-11 9-12 12h-2l-9-12-9-9-8-7-4-5-5-3-5-5v-2l-3-1v-2l-4-2-10-9-11-9-6-5-4-4v-2l-4-1v-2l-4-2-3-3-4-2-15-15-6-5-5-5-1-4h-2l-2-4-5-2h-8l-4-1v-2l-6-1-14-4-3-9-1-21 2-21 5-15 9-17 11-13 9-8 14-8 10-4z" fill="#F44536"/>
<path transform="translate(868,505)" d="m0 0h44l15 1 27 5 5 2 16 4 16 6 9 4 16 8 14 8 24 14 16 12 13 11 11 9 12 11 7 8 12 12 7 8 10 12 13 20 9 15 14 24 8 15 11 28 7 19 3 8 6 21 3 11 5 27 2 14v12l-2-1-2-5-4-4-1 2h-22l-2 1v-2h-2l-6-16-2-14h-3l-5-24-5-17-4-13-4-10-9-21-12-24-13-18-9-14-14-18-11-12-7-8-6-5v-2l-4-2-15-15-9-7-2-1v-2l-4-2-9-6v-2l-5-2v-2l-5-2-10-7-11-6-18-8-24-8-23-6-27-5-11-1h-19l-31 3-24 5-27 9-12 5-24 11-16 9-10 7-18 12-11 9-12 11-24 24-7 8-12 13-12 17-12 20-8 17-7 21-5 22-1 10v28l3 41 4 24 3 9h-3l-6-7-7-12-8-16-6-14-5-17-4-19-2-8-3-20-1-20 1-32 3-21 7-23 2-2-1 6-2 9 8 2 1 3 3 1 3 5 3 1 3 5 3 1 1-6 8-16 13-22 11-20 10-14 8-11 9-10 7-8 11-9 13-12 20-15 10-7 9-3v-2l22-11 11-6 7-3 15-6 19-5 37-8z" fill="#DB762E"/>
<path transform="translate(398,799)" d="m0 0 1 2 7-1 2 1 5-2 10 2h8 3l6 2v2h2l6 28 6 20 9 24 11 24 6 10 6 11 16 24 11 14 13 15 25 25 11 9 12 9 20 13 19 11 22 10 16 6 21 6 26 5 20 2h41l18-2 28-6 25-7 20-7 16-7 19-12 14-10 9-7h2v-2l9-7 10-9 8-7 3-3h2v-2h2l2-4 5-5h2l2-4 7-8 5-5 4-5h2l2-4 10-15 8-14 12-18h2v-2l4-4 4-10 5-26 1-7h2v-2l4 2 3 9 2 5v7l-4 14-12 41-7 20-8 16-11 18-10 14-9 11-9 10-7 7-7 8-13 13h-2v2l-11 9-17 14-15 10-26 14-35 13-13 4-7 1-1 1-45 7-3 1h-39l-22-2-45-9-17-5-39-16-19-11-13-9-19-12-9-7-11-9-10-9-7-7-7-6-7-8-12-13-9-11-14-18-4-7-4-5-3-7-10-18-6-11-7-14-6-16-6-15-2-7-2-9v-4h-2l-3-10-3-15-4-17z" fill="#8BE8FD"/>
<path transform="translate(816,271)" d="m0 0h28l27 2 27 4 26 5 50 12 29 9 13 5 1 4-7 3h-15l-15-2-4-1v-2l-9-1-22-4-9-2-18-2-34-2h-31l-22 1-41 6-20 4-13 2-17 5-36 11-30 13-19 8-16 8-12 7-14 10-13 9-12 9-14 9-10 8-10 9-19 19-7 8-15 15-18 22-11 16-10 14-12 21-11 21-2 6h-2l-1 6-10 19-4 9-3 9-5 12-4 11-3 9-6 23-2 4-6 36-2 15h-2v9l-4 49-2 1-2-8-2-1v-3h-9l-2 5-3 3-8-1-2 2-3 10-3 1-1-2-1-14-1-28v-33l4-36 3-17 5-22 7-23 10-29 11-25 19-39 1-2h2l1-4 13-23 12-17 2-3h2l2-4 7-9 9-12h2l2-4 4-5 7-8 23-23h2l2-4 4-3h2v-2l7-6h2l1-3 4-3h2v-2l5-2v-2l12-9 10-8 11-7 11-8 21-12 21-11 9-4 23-10 31-11 38-10 25-6 17-2 18-1z" fill="#8BE8FD"/>
<path transform="translate(853,298)" d="m0 0h31l45 3 14 2 11 3 17 3 5 1v2l19 2h16l6-2v-3l9 3 17 8 28 12 14 7 34 22 4 4v2h-8l-17-8-17-7-34-11-49-14-49-8-21-2-51-1-28 2-26 4-34 7-22 6-21 8-33 13-45 22-27 16-16 10-17 13-10 8-13 11-10 8-20 20-7 8-12 13-11 13-14 19-11 17-10 17-10 18-16 33-8 20-10 37-6 29-3 28v46l3 33 1 10-1-2h-5l-3-2-1 1h-8l-10-2-6 2-5-1h-3l1 13 6 25-1 3-1-2-6 2-17 4-8 4-2 3h-2l-7-30-4-31-2-21-1-18v-39h1l2 50 1 14 3 1 2-10 3-3 8 1 5-7 4-1 5 1v3l3 1 2 7 4-49 1-9h2v-8l5-33 3-12 5-16 2-9 3-9 4-11 7-16 3-9 11-23 3-7h2l1-6 13-25 13-22 10-13 9-13 8-10 12-14 18-18 7-8 21-21 17-13 16-10 14-11 15-10 14-9 16-8 18-8 26-11 13-5 30-9 17-5 28-5 32-5 14-2z" fill="#3275D9"/>
<path transform="translate(537,636)" d="m0 0 4 1 4 9 3 3 2 6 4-2 3-6 3-5 3 1-2 10-6 18-6 25-1 5-3 25-1 19v18l2 22 6 28 7 23 9 21 12 22 13 20 13 16 7 8 22 22 11 9 20 14 18 13 23 16 10 7v3l-16 5-4 4-8-1-16-6-16-10-15-11-21-14-7-6 1 4 5 2 5 4 4 5 5 5 5 8v16l1 6-5 1-14-5-11-7-10-8-17-12-8-7-9-7-9-10-5-4-9-11-8-8-13-17-9-14-13-24-12-26-12-36-5-21-5-31-2-18v-39l1-9h1v36l6-5 1-2 16-6 9-2 4-1 5 1v-7l1-1 3-24 8-26 4-12 1 4 9-19 2-4z" fill="#DB2B2D"/>
<path transform="translate(1182,909)" d="m0 0 3 4 3 9 6 4 5 4 4 5 8 3 6 3v2l3 1 1 5-2 20-2 6-2 11-3 16-3 10-3 11-5 16-8 16-3 9-9 19-2 2-2 5-3 5h-2l-1 5-3 4-6 12-6 8-5 6-4 7-11 14-7 9h-2l-2 5-5 6-10 8-8 8-6 5h-2v2l-10 8-11 9-13 11-17 13-15 9-9 6-11 6-15 8-12 5-16 8-16 6-11 5-12 4-10 4-40 10-33 8-18 4-23 3h-47l-7-1-26-1-19-2-16-6-7-1-4 1-7-3-7-2-8-6-3-2 38 1h66l39-4 35-6 32-9 16-5 17-6 35-14 19-10 24-13 33-22 14-11 10-8 14-12 13-12 26-26 7-8 10-12 14-19 12-18 11-19 11-23 10-25 9-27 6-24 5-23 4-31z" fill="#FBE19C"/>
<path transform="translate(1067,1054)" d="m0 0 2 2v5l3 1 9 2v3l5-1v-2h5l4 4v3h2l1 3-9 14-3 1-1 4-4 6h-2l-1 4-10 11-7 8-9 10-7 8-10 9h-2l-2 4-11 9-9 7h-2v2l-8 7-13 10-17 12-25 14-16 8-27 13-26 10-25 7-28 7-30 5-23 2h-38v2h-17v-2h-26l-21-1-25-3-17-3-25-7-22-8-17-6-20-9-32-16-10-6-17-10-8-8 6-1v-2l2-1v-3l3-3v-5l2-1v-3l4 1-1-6 6-3h3l18 12 16 9 16 8 25 11 19 7 29 9 26 6 29 4 36 3h39l36-3 34-5 20-5 42-15 26-11 21-11 17-11 20-14 14-10 14-11 16-15 17-17 10-13 11-14 11-16z" fill="#2C7A58"/>
<path transform="translate(1053,988)" d="m0 0 4 1 4 9 2 6 2 1 1 3 3 2 2 4h3l5-1 9-6 3-3-1 7-11 23-6 11-12 20-12 16-20 25-24 24-8 7-18 14-16 11-19 13-20 12-23 11-29 11-31 11-23 5-37 5-27 2h-39l-36-3-29-4-22-5v-2l-6-1-1-2 7-25 3-4 2-8 8 1 29 5 32 3 14 1h28l24-2 33-5 31-6 24-7 25-10 17-8 23-13 22-14 11-9 14-11 11-11 8-7 11-11 9-11 12-15 13-20 6-10 8-16z" fill="#C1EF92"/>
<path transform="translate(1279,562)" d="m0 0 3 4 5 9 6 9 4 8 12 22 14 31 9 23 4 11 5 18 7 32 4 17 3 16 2 28v68l-3 31-5 29-6 26-7 20-9 21-14 35-9 21-16 30-21 35-8 11-11 14-13 15-13 17-11 12-14 15-6 7-3-1 14-19 10-18 7-11 6-10 5-9 7-14h2l1-6 11-23 2-5h2l2-10 4-8 10-30 6-24 2-10 2-7 3-14 4-35 2-26h2l1-26 2-4 4 1 2 7 4 1 6 5 3 1 3 8-1 13-1 18 4-31 2-18 3-24 1-11v-36l-3-21-4-25-5-28-6-23-9-27-4-10-10-26-17-34-3-5 1-6 5-3-4-3-2-6 4-2 2 2v-5h2l1-2 11 7-3-4h4 2l2-6v-3-4l2-1-4-6-3-3v-3h-2l-3-8z" fill="#F96A3B"/>
<path transform="translate(985,762)" d="m0 0h1l1 6v16l-2 25-6 16-8 16-9 13-9 10-18 18-8 7-15 14-26 26-8 7-48 48-8 7-4-1-7-8-8-8-2-1v-2l-4-2-15-14-8-7-15-15-8-7-12-11-8-7-15-14-21-21-5-6-8-7-9-11-8-11-7-14-4-12-2-13v-14h1l1 13 2 9 7 1 13 4v2h14l5 4v3h2l3 5 5 5 12 11 7 6 1 2 4 2v2l6 3v2l4 1 4 4v2l4 2 8 7 3 2v2l4 2 10 9 5 4v2l4 2 1 3 5 2 10 11 8 7 9 10 3 4v2l8-7 8-8 7-6h2v-2l11-9 12-10 6-9 5-5 7-8 12-11 10-9h2v-2l8-7 13-10 7-7 9-12 10-18 5-8 4-2 20-4 2-1z" fill="#8D181F"/>
<path transform="translate(1206,1082)" d="m0 0h7v21l-8 15-12 18-12 17-13 16-11 14-18 18-8 7-12 11-8 7-10 9-19 14-18 13-15 10-26 14-32 16-12 5-21 7-22 6-14 4-30 5-14 1h-117l-24-1-36-4-19-3-6-2-18-3-18-6-2-2 4-7 1-5 8-1v3l4 1 8 6 7 2 9 2 3-1 13 4 8 3 21 2 24 1 7 1h47l23-3 48-11 31-8 14-4 15-5 12-5 16-6 16-8 13-6 16-8 10-6 9-5 18-11 14-11 13-11 14-11 8-7h2v-2l11-9 8-8 8-6 6-9 5-5 12-15 5-7 3-5 9-12 8-15 9-4 6-7 7-4 9-3z" fill="#D66F2A"/>
<path transform="translate(888,572)" d="m0 0 21 1 21 4 45 15 19 9 9 6 9 5 11 8 14 11 11 9v2l4 2 14 14 7 8 9 9 13 17 3 8 4 6-7 4h-2l-1 4-5 5-5 1-4 1-1 8 5 13 1 6-4-4-12-19-14-23-9-10-8-10-10-9-4-4-5 1-3 4h-2l-2 4-3 13-3 1-19-19-16-12-13-8-29-15-20-9-23-9-14-4-20-4h-31l-27 4-20 5-5 2h-6l4-4 14-8 21-13 12-5 9-4 33-11 15-4 5-1z" fill="#FEC069"/>
<path transform="translate(1012,359)" d="m0 0 5 1 16 5 12 5 10 4 11 4 8 4 13 5 16 8v2l5 1 4 2v2l6 1 10 7 21 14 19 14 4 3v2l5 2 9 8v2l4 2 8 7v2l4 2 8 7 5 6v2h2l7 8 5 5 7 8 5 5 5 6v2h2l3 5v2h2v2h2l2 6h2l4 6v2h2l5 7 4 7 5 8 3 10v2h2l1 5 4 2 3 6-3 1 2 5-2 2-1 8-1-2-5-1 3 3-1 2-11-7-3 1 1 6-4-2-2 2 3 4v2l3 1-3 6-2-2v3h-2l-1 2-8-14-9-14-9-12-10-13-9-11-9-10-9-11-15-16-25-25-11-9-10-8-17-13-15-11-12-8-1-4-11-7-3-2v-2l-6-2-8-7-2-1-1-5h-2l-3-5-11-6-3-3-2-9-2-10-11-8-4-2v-2l-5-1-7-1v-2l-5-1-4-4 1-2h7z" fill="#FA5A46"/>
<path transform="translate(273,844)" d="m0 0 6 1 1 1 10 1 3 5 2 3 2-2v2l3 1 5 25 7 28 4 13 3 9 9 23 4 8 3 7 11 23 2 3v3h2l9 16 10 17 11 16 12 16 9 10 7 8 10 12 8 7 15 14 8 7 14 12 17 13 7 5-3 3-8 4-4 5-10 10-2 3-7-1-14-11-19-14-11-9-10-10-8-7-9-9-7-6-7-8-13-16-11-15-13-20-10-17-8-15-10-23-13-32-5-15-13-53-5-25-1-9h2v-11z" fill="#3275D9"/>
<path transform="translate(992,537)" d="m0 0 8 1v2h7l6 3 2-1v2l5 1 5 2v2l6 1 8 7 7 6v2l4 2 5 2 7 2 9 4 5 1 5 4 5 2 13 12 7 6 7 8 12 12 7 8 10 12 13 20 9 15 14 24 8 15 11 28 7 19 3 8 6 21 3 11 5 27 2 14v12l-2-1-2-5-4-4-1 2h-22l-2 1v-2h-2l-6-16-2-14h-3l-5-24-5-17-4-13-4-10-9-21-12-24-13-18-9-14-14-18-11-12-7-8-6-5v-2l-4-2-15-15-9-7-2-1v-2l-4-2-9-6v-2l-5-2v-2l-5-2-10-7-11-6-18-8-12-5v-2l-6-1v-2l-8-1-2-1v-2l22 3 2-1 7 1 6-3-1-3-2-1v-6h-3l1-3z" fill="#DA762D"/>
<path transform="translate(876,456)" d="m0 0h21l2 2-2 1h-14l-32 5-8 2-10 2v2l-10 4-3 2 2 5 5 4 4 8 4 6 3 1 29 1 9 1 1 2-22 4-34 7-16 4-14 4-13 5-14 7-11 6-12 6h-3v2l-10 5-17 12-14 11-12 11-11 9-11 12-10 13-8 12-8 13-11 20-9 15-7 14-2 6-4-1-2-5-5-1-2-5-5-4-6-2 1-9 3-12 5-11 1-4h2l2-9 8-14 8-13 4-8 9-13h2l2-4 8-11h2l2-4 18-20 13-12 10-9 17-13 15-10 18-10 21-11 39-15 15-5 36-7z" fill="#FBD17E"/>
<path transform="translate(508,789)" d="m0 0 2 1 6 33 10 28 11 22 11 18v3h2v3h2l10 13 2 4 5 5 8 10 16 17 12 11 7 6 4-2-3-5v-2h-2l-4-10-3-7-4-7-4-6 1-8 3-3 1-4 9 11 25 25 11 9 20 14 18 13 23 16 10 7v3l-16 5-4 4-8-1-16-6-16-10-15-11-21-14-7-6 1 4 5 2 5 4 4 5 5 5 5 8v16l1 6-5 1-14-5-11-7-10-8-17-12-8-7-9-7-9-10-5-4-9-11-8-8-13-17-9-14-13-24-12-26-12-36-2-7 1-4h2l3-5 7-2 8-3 9-6h2v-2h2z" fill="#8D181F"/>
<path transform="translate(1178,815)" d="m0 0h2l2 6 2 10 4 11v3h4 20l2 1 1-3 5 5 2 5 2-4 2 19 1 2 12 2 5 5v2l4-2 5-1v-8l3-1 1 7 3 3v13l2 2-1 14-1 2v18l-1 26h2l-1 10-6 30-5 20-5 18-9 27-10 23-11 21h-2v-14l1-5-16 3-10 4-3 1-2 4-5 5-6 1 1-5 2-1 3-5 2-5 8-15 4-10 3-7 7-16 5-15 2-9 4-13 2-13 3-16 1-1 2-23-3-3v-2l-4-1-7-3-5-3-2-4-4-2-5-4-3-2-5-13v-54l-3-28-1-5z" fill="#FEB059"/>
<path transform="translate(418,1027)" d="m0 0 5 5 9 10 9 11 6 6v2h2l7 8 16 15 5 5 11 10 20 15 13 10 13 8 17 10 16 9 23 10 24 10 19 6-1 9-3 4-7 26 6 2-4 1-29-9-19-7-27-12-16-8-16-9-17-12-6 3-1 6h-3l-1 3h-1v6l-4 4 1 2h-3l1 3-5 1 2 3-5-2-10-7-9-7 4-2 4-7h2l4-5h2l2-4 3-3 9-4-11-9-14-11-15-13-13-12-10-9-7-6-2-3v-8l1-5-1-6 2-1-3-6h2l-4-6h2l-3-6 4-2-3-4-1-5h2v-2h3v-2h2v-5h2z" fill="#4FC5E5"/>
<path transform="translate(1073,1198)" d="m0 0 2 1-5 5-1 6 3 2-11 9-15 12-18 11-9 6-11 6-15 8-12 5-16 8-16 6-11 5-12 4-10 4-40 10-33 8-18 4-23 3h-47l-7-1-26-1-19-2-16-6-7-1-4 1-7-3-7-2-8-6-3-2 38 1h66l39-4 35-6 32-9 16-5 17-6 10-4 21-8h8l19-8 15-8h2v-2l17-9 14-7 10-8 5-3h2v-2h2v-2l11-5h3l1 2h23l12-5z" fill="#FCD992"/>
<path transform="translate(1193,580)" d="m0 0 4 1v2l4 1 7 9v2l3 1 3 5 4 5 5 5 6 8 4 6 14 8 1 4 5 1 2-2v2l3-1 10 9 1 3h2l7 10 4 9 4 6 4 11 3 7 3 11 4 8 8 18 2 2 6 26 5 30 2 13 3 21v36l-3 30-2 11-4 36-2 9h-1v-10l2-20-1-7-1-4-5-1-5-5-3-1-2-3v-4h-4l-1 3-2 26h-1v-13l1-18v-28l-2-29-4-33-7-33-10-36-9-25-15-33-10-20-10-18-11-18-11-16-9-13z" fill="#B82B26"/>
<path transform="translate(725,688)" d="m0 0h20l22 5 19 8 10 6 10 9 11 14 4 8v3h2l2-6 7-10 9-10 8-7 13-8 16-7 5-2 12-2h15l16 3 15 6 11 7 13 12 6 8 2 5-3 7-7 2v3l-5-2-13-10-9-6-14-6-11-2h-20l-15 4-17 9-13 9h-2l-2 4-9 9-10 15h-1l-3-13-11-13-9-9-15-8-17-5-16-3h-17l-16 5-11 7-5 4h-2l-2 4-5 6h-2l-2 5-5 12-4 11-2 15-5-2-8-3-8-2-4-2v-13l4-16 9-19 7-9 9-10 11-8 14-7 5-2z" fill="#FBFDFB"/>
<path transform="translate(418,434)" d="m0 0h2v8l-5 13-13 24-7 12-3 3-5 9-1 2h-2l-1 4-1 3h-2l-2 5-9 15-5 10-1 7-3 3h-2l-2 9-4 9-3 9-4 8-4 13-7 13-4 1-1 3h-2l-1 8-6 29-8 54-9 46-3 19-2 4-6 1-10-3-7-4v2l-5 1-1-1v-17l5-30 3-21 5-19 10-31 8-24 6-13 6-15 4-9 4-11 4-7 3-7 14-27 18-30 7-11 11-17 10-15 6-8h2l2-4 9-11 6-7 1-2z" fill="#77DAFA"/>
<path transform="translate(868,505)" d="m0 0h44l15 1 27 5 5 2 16 4 16 6 9 4 16 8 14 8 24 14 16 12 13 11-2 1-7-5-6-1-6-3-7-2-6-3-3-2v-2l-4-2-8-7-5-4-4-1v-2l-5-1-11-4-9-2v-2h-8l-3 3h3v6l4 2-2 4-5 2-8-1-2 1-19-3-2-1v2l10 2v2l6 1v2l-9-2-21-6-25-5-18-2h-19l-31 3-14 3h-8l3-2-2-1-24 4-5 1v-2l-8 4v-10l5-5-1-9-19 1-7 4h-3v2h-2v2l-15 7-8 1-2-2 15-8 24-12 13-5 19-5 37-8z" fill="#D66F2A"/>
<path transform="translate(393,557)" d="m0 0 1 4-2 10-2 12 7-6h2l5 5 1 6 3 1 12-6 3-2 1 2 3-3 4-2v2h2l1-2-2 12 1 2-5 14-4 9-4 11-3 9-6 23-2 4-6 36-2 15h-2v9l-4 49-2 1-2-8-2-1v-3h-9l-2 5-3 3-8-1-2 2-3 10-3 1-1-2-1-14-1-28v-33l4-36 3-17 5-22 7-23 10-29z" fill="#76D8FA"/>
<path transform="translate(536,536)" d="m0 0h3l4 8 5 3 1 16-1 2h2v4l3 1 3 5-1 1 2 1v-2l4 1-6 10-12 22-5 12-5 14-5 11-7 20-6 18-3 11-3 24-1 1-1 7h-7l-6 2-14 4-3 2h-4l-1 3-6 5-1-1v-24l5-45 3-13 3-12 3-11 4-8 3-7 1-5h2l1-5 4-8 3-9 2-3h2l2-6 5-10 3-7h2l2-8 3-4h2l1-5h2l3-9 7-5z" fill="#FB6154"/>
<path transform="translate(393,491)" d="m0 0 1 2-8 16-10 19-6 12-12 28-13 37-6 24-6 29-3 29-2 36v52l2 23 5 30 4 18 4 17 4 14v5l-2-4-6-18-4-20-4-9-4 1-8 6-11 4h-3l-2 5v16l2 12v6h-1l-5-25h-3l-4-4-2-4-10-1-3-2-5 1-3 4-1 11h-2l-2-27v-38l2-22 2-13h1l1 12h5v-2l5 2 8 3 8 1 2-1 3-15 4-23 7-35 7-49 3-13 3-16 2-8h2l1-4 4-1 7-15 3-10 6-12 3-10 5-13 4-4 2-7 4-9 7-11 5-9h2l1-4 1-3h2l2-6z" fill="#50A7ED"/>
<path transform="translate(398,799)" d="m0 0 1 2 7-1 2 1 5-2 10 2h8 3l6 2v2h2l6 28 6 20 9 24 11 24 6 10 6 11 14 21-1 2-7-4-2-5-4-4 2 5 6 10 4 8 7 6 2 5 4 3 2 6-1 3 1 6-3-1v10l-4-1-1-1-2 7h-6l-10-9-2-6h-2l-6-7v-2l-4-2-4-8-3-8-6-7-2-8-7-6-8-12-4-7-5-4-3-1-1 2-4-9-5-13-6-15-2-7-2-9v-4h-2l-3-10-3-15-4-17z" fill="#76D9FA"/>
<path transform="translate(1019,668)" d="m0 0 4 1 10 10 7 6 16 20 10 17 14 22 8 14 8 21 7 25 7 34 3 20v15h-2l-2 8-8 4-11 4-10 2-4 1-1 14h-1l-1-44-2-30-4-22-6-21-7-20-14-28-11-17-9-12-13-18-2-3h2l1-10 4-7h2l2-4z" fill="#2C7958"/>
<path transform="translate(1027,794)" d="m0 0 2 1 7 24 3 14 5 42v34l-3 22-6 24-8 21-10 22-6 11-10 16-11 16-3 4h-2l-2 5-19 19-2-4-4 2-3 1h-2l-7 1-11-1-14-1-2-1-1-8 11-9 4-2v-2l8-7 12-12 7-8 8-8 11-14 10-14 11-18 8-16 11-33 12-42v-7l-5-13-3-3v2h-2l-1 13-5 24-6 10h-2v2l-2-1 7-14 4-13 7-39z" fill="#43A2E5"/>
<path transform="translate(1182,909)" d="m0 0 3 4 3 9 6 4 5 4 4 5 8 3 6 3v2l3 1 1 5-2 20-2 6-2 11-3 16-3 10-3 11-5 16-8 16-3 9-9 19-2 2-2 5-3 5h-2l-1 5-3 4-6 12-6 8-5 6-4 7-11 14-3 3v-3l-4 1v-2l-4 3h-2l2-5 8-16 4-12-2-1 2-5 4-4h2v-2h2l6-15 9-31 4-6 2-6 3-21v-11l1-18 4-31v-6l-1-2 5-25 3-24z" fill="#FCD991"/>
<path transform="translate(966,400)" d="m0 0h20l15 4 10 2 44 17 27 14 18 11 18 13 17 13 14 11 14 12 32 32 9 11 12 13 9 11 14 18 4 5 3 9-5-3v-2l-4-2-5-6-4-4-5-10-3-1-4-5-2-1v-2l-3 1-8-7h-2l-4-5-2-1v-2l-4-2-8-3 2-2-9-6-2-5h-5v-2l3-2-6-3h-10l-12-7-8-7v-2h-2l-7-8-6-3-1-2-14-6-4-3-13-5-11-7v-2h-2v-2l-4-2-5-3v-2l-5-2-9-6-7-6-4-4-4-2-7-2-12-2-15-2-9-4-14-7-8-3-5-1v-2l-8-3-4-9 4-3 4-1z" fill="#8D181F"/>
<path transform="translate(399,713)" d="m0 0h1v16l6-8 5-1 5 1 2 2 6-2h2l1-3 4-1v-3l3-1 2 3 1 46 3 33 1 10-1-2h-5l-3-2-1 1h-8l-10-2-6 2-5-1h-3l1 13 6 25-1 3-1-2-6 2-17 4-8 4-2 3h-2l-7-30-4-31-2-21-1-18v-39h1l2 50 1 14 3 1 2-10 3-3 8 1 5-7 4-1 5 1v3l3 1 2 7 4-49z" fill="#50A7ED"/>
<path transform="translate(1295,887)" d="m0 0 4 1 2 7 4 1 6 5 3 1 3 8-1 13-1 10v15l-4 19-7 25-6 18-6 29-1 11-5 4-1 6h4l1-4 3-6 2 1 1 5-11 20-18 30-8 11-11 14-13 15-13 17-11 12-14 15-6 7-3-1 14-19 10-18 7-11 6-10 5-9 7-14h2l1-6 11-23 2-5h2l2-10 4-8 10-30 6-24 2-10 2-7 3-14 4-35 2-26h2l1-26z" fill="#E86D33"/>
<path transform="translate(1206,1082)" d="m0 0h7v21l-8 15-12 18-12 17-13 16-11 14-18 18-8 7-12 11-8 7-10 9-15 11h-3v-2h2l2-4 8-14 1-8-10-4-2-3 5-12 3-5h2v-2l11-9 8-8 8-6 6-9 5-5 12-15 5-7 3-5 9-12 8-15 9-4 6-7 7-4 9-3z" fill="#E87F2F"/>
<path transform="translate(193,810)" d="m0 0h15l15 2 3 4 2 8v7l-3 6-5 4-6 2h-99l-79-1-4-5v-17l3-5 2-2 8-1z" fill="#87E4FB"/>
<path transform="translate(633,1178)" d="m0 0 8 1 29 5 19 2 1 2 9 3h8l10-1 10 2 6-1 10 2h6l3 3-4 2-1 2 9 1-1 5 6 1 2 5-1 2 5 1 2 2-1 2h5v4l-6 3-8 2v2h10v1l-15 1h-39l-36-3-29-4-22-5v-2l-6-1-1-2 7-25 3-4z" fill="#B3EC97"/>
<path transform="translate(779,842)" d="m0 0h5v2l7-2 12 4 13 3 14 1 11 4 1 1h6 3v5h-2l6 2-1 9-4 8h-2l-1 4-3 7 1 6 5 2 7-3 12-9 5-5h3l-4 5h-2l-2 5-7 8-10 8-8 7h-2v2l-11 9-12 12h-2l-9-12-9-9-8-7-2-3 3-1v-6l-3-1-2-4-6-8v-2h-3l-1-4-8-3-5-5-1-4-3-1-2-5 2-7 4-1v-3h-2l2-4 5-2 1-2 5 1z" fill="#EB3B31"/>
<path transform="translate(837,591)" d="m0 0h12v2h9l8 3 30 4 25 5 28 10 17 8 15 10 18 13 13 10 15 14 7 8-1 2-11-11-5 1-3 4h-2l-2 4-3 13-3 1-19-19-16-12-13-8-29-15-20-9-23-9-14-4-20-4-31-1v-1h7l-2-4 1-7 2-3z" fill="#D66E29"/>
<path transform="translate(177,888)" d="m0 0h15l23 2 9 3 2 1 2 8v15l-1 1-34 1-19 2-65 1-39-2-11-2-7-5-4-7v-10l4-5h50l64-2z" fill="#8AE7FC"/>
<path transform="translate(1408,811)" d="m0 0h38l97 1 18 1 7 2 2 4v20l-6 2-28 1-95 1-31 1-9-6-5-7v-9l6-8 2-2z" fill="#EE7E42"/>
<path transform="translate(1095,694)" d="m0 0 4 4 12 19 9 16 10 21 11 33 6 28 1 13-1-2-6 2h-6v2l-9 3-5 1-5 10-2 10-1-3h-2l-4-24-7-31-8-26-6-13-4-9-1-6-5-13 1-5 1-3 6-3 3 1 2-4 3-1 1-4 8-5-6-9z" fill="#B1D875"/>
<path transform="translate(674,574)" d="m0 0h7l1 3 4 1v5l3 1-12 11-7 6-9 11-8 10-8 12-8 13-11 20-9 15-7 14-2 6-4-1-2-5-5-1-2-5-5-4-6-2 1-9 3-12 5-11 1-4h2l2-9 8-14 8-13 4-8 9-13 1 2 7-3 8-7h2v-2l8-6h7l4 1z" fill="#FEBF69"/>
<path transform="translate(734,714)" d="m0 0h17l24 5 13 5 12 7 13 13 7 9 3 12 1 3-3 1-3-12-2-6h-2l-3-5-8-5-7-2-5 1h-8l-1-1h-10l-6 12-5 3h-2v2h-3v2l-8 1-7-1-1 2h-4v2l-5 1-5 3h-3v2l-3 2h-3l-2 5-5 1-1 5-5 3h-3l-2 4-3 4-8 3-5-2v-2l-6-2-6-3v-2l-11-2-7-1v-6l4 1 16 5 5 3v-11l3-10 6-16 4-6h2l2-4 5-6 16-11 10-4z" fill="#FB5B47"/>
<path transform="translate(499,1161)" d="m0 0 11 7 14 9 23 12 22 10 20 8 6 2v3h2l1 23-3 6-2 6-7-1-18-6-23-10-34-17-10-6-17-10-8-8 6-1v-2l2-1v-3l3-3v-5l2-1v-3l4 1-1-6 6-3z" fill="#257C82"/>
<path transform="translate(1054,606)" d="m0 0h4v2l3 1v2l5 2 9 7 1 3 4 2 1 3 4 2 8 7 7 8 9 10 7 8 2 4 4 2 12 16 8 13 7 17 16 28 7 10 1 2 9 4h6l9 6 7 8 5 6 2 4 3 9 3 16 4 20 2 14v12l-2-1-2-5-4-4-1 2h-22l-2 1v-2h-2l-6-16-2-14h-3l-5-24-5-17-4-13-4-10-9-21-12-24-13-18-9-14-14-18-11-12-7-8-6-5v-2l-4-2-15-15-5-4z" fill="#E87D2F"/>
<path transform="translate(1549,888)" d="m0 0 6 1 5 5 1 7-6 9-7 5-18 5h-83l-41-1-7-2-3-3v-10l3-6 4-4h4v-2l5-1h119l14-2z" fill="#F6693A"/>
<path transform="translate(895,689)" d="m0 0h15l16 3 15 6 11 7 13 12 6 8 2 5-3 7-7 2v3l-5-2-13-10-9-6-14-6-11-2h-20l-15 4-17 9-13 9h-2l-2 4-9 9-10 15h-1l-3-13-11-13-9-9-15-8-12-4 4-1 16 6 7 3 4-1 9-3 8 12 1 6h2l2-6 7-10 9-10 8-7 13-8 16-7 5-2z" fill="#FBFDFB"/>
<path transform="translate(1012,359)" d="m0 0 5 1 16 5 12 5 10 4 11 4 8 4 13 5 16 8v2l5 1 4 2v2l2 1-6 4 1 5 3 7-3 8-1 5 2 3v3l4 2 9 11v2h2v2h2v2h2l1 4 4 2 13 10 1 3 5 2 7 7 13 8 8 11 6 9-1 3-4 1-22-22-11-9-10-8-17-13-15-11-12-8-1-4-11-7-3-2v-2l-6-2-8-7-2-1-1-5h-2l-3-5-11-6-3-3-2-9-2-10-11-8-4-2v-2l-5-1-7-1v-2l-5-1-4-4 1-2h7z" fill="#FB6154"/>
<path transform="translate(1224,750)" d="m0 0h9l5 2 3 10v7l-2 5h-2l4 10v2l4 2 5 10 3 4 4 10 3 13 2 17 3 14v29l-2 49-2 18h-2l-1-7 1-26v-11l2-10v-6l-2-2v-15l-3-1v-7l-2 2v7l-3 2-7 1-5-6-12-2-2-3-4-33-6-36h2l4-4v-20l-1-11 1-11z" fill="#FEC069"/>
<path transform="translate(985,762)" d="m0 0h1l1 6v16l-2 25-6 16-8 16-9 13-9 10-18 18-8 7-15 14-26 26-6 3-10 10-8 7-8 9-2-1v-5l6-7 9-11 6-5 10-8 3-1 2-4 11-10 7-8 7-6 5-6 5-3 3-1v-2h2l2-4 6-8 1-5-5-10-3-4-1-5-5 1-4 3h-2l-1 3-4 1v2l-5 3-3 4h-3l-2 4-8 6-6 3-6 6-2-1 8-8 8-7 12-11h2v-2l8-7 13-10 7-7 9-12 10-18 5-8 4-2 20-4 2-1z" fill="#9F1C20"/>
<path transform="translate(508,789)" d="m0 0 2 1 6 33 7 20-1 3-2 4 2 1 1 10 5 12v4h2v9l-1 2h2l-3 10-2 7v4l4 1 2 9 1 5 2 2 6 11v2h2l1 5h-3l-10-9-14-19-10-18-16-32-8-21-9-29 1-4h2l3-5 7-2 8-3 9-6h2v-2h2z" fill="#9F1C20"/>
<path transform="translate(1129,963)" d="m0 0 4 1 2 1v2h5v-2h2l-1 9-3 9-6 20-4 10-2 7-1 2h-2v5l-4 8-5 11h-2l-2 7h-2l-2 7-3 4-1 3h-2l-2 5-3-1-1-3-3-2v-2h-5v2l-5 1v-3h-5l-4-1-4-2v-10l8-13 12-24 8-20 8-25 2-1v4h5l8-6 1-1z" fill="#6BBFBB"/>
<path transform="translate(604,541)" d="m0 0h9l-1 13 5-3 2-3h2l1-2 1 3-6 8-4 7-8 9-15 23-12 20-8 16-7 16-1-4-2-2-2 6-4 6-4 2-4-8-4-5-2-6h-5v4h-2l-3 9-6 11-1-2 2-9 5-12 7-18 5-12 8-14 4-8 6-10 3-6 7-1 6-6h2l1-2 13-6 9-9z" fill="#B32326"/>
<path transform="translate(1215,990)" d="m0 0 2 4h4v2l7-2 2 4 6 1h4l2 1 2 9v13l2-1-2 9-9 27-10 23-11 21h-2v-14l1-5-16 3-10 4-3 1-2 4-5 5-6 1 1-5 2-1 3-5 2-5 8-15 4-10 3-7 7-16 5-15 2-9 6-21z" fill="#F79D4B"/>
<path transform="translate(600,909)" d="m0 0 5 5 9 10 21 21 11 9 20 14 18 13 23 16 10 7v3l-16 5-4 4-8-1-16-6-16-10-15-11-18-12-4-5-7-6 3-4-3-5v-2h-2l-4-10-3-7-4-7-4-6 1-8 3-3z" fill="#CA282A"/>
<path transform="translate(891,715)" d="m0 0h20l13 3 13 6 12 8 12 9 2 1v-3l4-2h3l2-7 2 1v2h2l6 13 3 10 1 14v12l-3 2-23 5-5 8-5 9-6 1-1-4 1-4-2-1-1 4-3-1 2-10-1-4 1-7-1-5-2-3v-11l2-1v2h2l-1-3 2-6 2 1-1-5-5-5v-2h2l-3-5-6-6v-2h-5l-4-1-5-1 2 5-7-1v2l-4 1-12-2-5 1-3 2h-13l-1 1h-5l-3-1-2-6h-5l1-2 16-8z" fill="#FA5C47"/>
<path transform="translate(839,1286)" d="m0 0 4 1-2 1 1 4-4 8-2 7-7 6v4l-19 3-8 1h-47l-7-1-26-1-19-2-16-6-7-1-4 1-7-3-7-2-8-6-3-2 38 1h66l39-4 35-6z" fill="#FEAF57"/>
<path transform="translate(578,694)" d="m0 0h1l-1 26 5 4 3 1 3 6 3 2 7 1v2l3 1-1 10v5l3 2 3-2-1 5h2l2 2v9l-1 10v28l3 41 4 24 3 9h-3l-6-7-7-12-8-16-6-14-5-17-4-19-2-8-3-20-1-20 1-32z" fill="#EE7232"/>
<path transform="translate(283,447)" d="m0 0 11 1 10 5 9 8 6 12v16l-5 10-8 8-11 5-9 2-8-1-10-5-10-9-4-6-2-6v-13l4-9 6-8 9-6 7-3z" fill="#50BCEC"/>
<path transform="translate(333,1150)" d="m0 0h8l28 28 6 7 11 9 12 11 8 7 11 10 11 9 14 12 11 9 8 7 2 3v6l-3 3-7-1-16-8-14-10-20-16-13-11-10-10-11-9-8-8-7-8-11-10-15-6-13-12-4-4v-3l13-1z" fill="#43A2E5"/>
<path transform="translate(567,1152)" d="m0 0 9 3 15 7 16 6 11 4 15 5-1 9-3 4-7 26 6 2-4 1-29-9-19-7-25-11v-7-3l2-7h2v-14h-2l1-4 4-2 1-2h3l5 1z" fill="#6BBFBB"/>
<path transform="translate(1413,727)" d="m0 0h15l18 1h27l11-1h28l2 1v16l-6 8-6 4-6 2-56 1h-26l-8-4-5-6-2-3v-7l5-7 4-3z" fill="#E86D33"/>
<path transform="translate(404,682)" d="m0 0 1 4-4 27h-2v9l-4 49-2 1-2-8-2-1v-3h-9l-2 5-3 3-8-1-2 2-3 10-3 1-1-2-1-14-1-28v-33l2-19h1l1 7 1 1 1-2h2l2-6 4-1 3 3 10 4 4-1 4 2 6 1 3-1z" fill="#63C3F9"/>
<path transform="translate(1338,448)" d="m0 0h13l11 6 8 7 6 12v16l-3 7h-2l-2 5-6 5h-2v2l-8 4-3 1h-13l-9-4v-2h-3v-2l-5-2-4-5-4-9v-14l4-10 9-10 10-6z" fill="#F24535"/>
<path transform="translate(1384,533)" d="m0 0h13l10 4 9 10 6 12v10l-4 11-9 10-2 2-6 2-4 2h-14l-12-6-5-3v-2h-2l-4-6-3-8v-12l6-12 9-9 8-4z" fill="#F8693B"/>
<path transform="translate(730,510)" d="m0 0 4 2 1 7-3 6v11l2 1-6 8-3 1v2l-4 4-1 5 2 1-19 14-13 11h-4l-1-5-3-1-1-2h-7l-13 2-1-1h-7l-6 5h-2v2l-9 7-4 3h-4l2-5 8-10 1-2h2l2-4 4-5 8-3 8-7 11-10 8-7 16-16 15-9 8-4z" fill="#FECA77"/>
<path transform="translate(499,656)" d="m0 0 6 1 3 1 4-2 9 1 1 5-7 21-3 11-3 24-1 1-1 7h-7l-6 2-14 4-3 2h-4l-1 3-6 5-1-1v-24l5-45 2-3v8l2-2 1-4h2l1-4 1-2 9-2 2-4 3-2z" fill="#FA5A46"/>
<path transform="translate(204,725)" d="m0 0 7 1 10 6 3 4v10l-3 6-6 5-7 2h-48l-35-1-4-6-2-7v-7l3-5 5-3 5-1 42-1 24-2z" fill="#75D7F8"/>
<path transform="translate(235,532)" d="m0 0 13 2 9 6 7 10 2 8v9l-3 10-7 9-10 6-8 2h-9l-7-3-6-4-7-7-5-12v-11l5-12 8-8 9-4z" fill="#60BFF7"/>
<path transform="translate(393,491)" d="m0 0 1 2-8 16-10 19-6 12-12 28-13 37-6 24-6 29-3 29-2 36v63l-2-3-2-24-8 2-6-11-2-10v-16l5-28 6-42 3-13 3-16 2-8h2l1-4 4-1 7-15 3-10 6-12 3-10 5-13 4-4 2-7 4-9 7-11 5-9h2l1-4 1-3h2l2-6z" fill="#429FE4"/>
<path transform="translate(1294,1144)" d="m0 0 6 2 6 4 7 3v5l-8 10-15 11-9 7-19 19-9 11-14 14-20 16-15 10-13 6-6 1 1-5 12-14 8-9 11-9 17-17 9-11 25-25 9-11 9-10z" fill="#EEEFD4"/>
<path transform="translate(1138,335)" d="m0 0 7 1 9 5 11 7 14 10 10 8 8 5 14 11 15 14 5 7 8 7 11 12 7 10v11l-1 1h-8l-3-2v-2l-4-1-5-4-5-5-12-13-12-12-7-6-5-4-4-4-5-4-3-2v-2l-5-2v-2l-5-2-7-6-3-1-5-5-7-6-3-3-9-7-3-5v-6z" fill="#ED4434"/>
<path transform="translate(537,636)" d="m0 0 4 1 4 9 3 3 2 6 4-2 3-6 3-5 3 1-2 10-6 18-6 25-1 5-2 16h-1v-12l1-6-4 3-2 9-2 3-2 8h-2l-1 2-3 1-10-2-4-2h-3l-2 5-2 23-2-1v-19l4-35 8-26 4-12 1 4 9-19 2-4z" fill="#CD292A"/>
<path transform="translate(506,327)" d="m0 0 6 1 3 3 1 6-9 8-20 14-8 7-11 9-10 9-11 9-5 4-5 6-8 4-10 8-9 5-5 5-9 6-3 3-2-1-1-4 4-7 4-5 1-3 8-8 2-4 7-6 4-6 10-10 11-9 4-4 8-7 5-4h2v-2l4-1v-2h3v-2l4-1v-2l4-1v-2l5-3h2v-2h3v-2l7-2v-2z" fill="#F0F0D7"/>
<path transform="translate(1408,811)" d="m0 0h38l97 1 18 1 4 2-3 1 4 6v7l-3 4-17 2h-7l-1 2h-16l-21-2-9-3-12-6-11-3h-18l-10 3-2 1-13-2-3-3-4-2 3-5h3v-2l-17-1z" fill="#EA6D31"/>
<path transform="translate(1070,944)" d="m0 0 5 1v2l4 1h-3 4l17-1 4 1 4-2h3l-1 10-3 12-3 14-9 25-2-2-5 5-7 5-6-1h-3l-1-4-3-2-2-3-2-2-4-14-4-1 10-29 4-13z" fill="#B1D875"/>
<path transform="translate(586,669)" d="m0 0 1 4-2 5-1 6 8 2 1 3 3 1 3 5 3 1 3 5 3 1 1-3 2-2 5-10 5-4h4l1 4-1 2 6 1 4-4h2l2-4 3-3h2l2-4 3-1-1 5-11 17-9 16-7 16-6 18-4 16-3-2v-3h-2v-4l-2 2h-2l-2-4v-9l1-5-2-1v-2h-7l-9-9h-3l-2-4h-1v-11l2-19 6-20z" fill="#E87D2E"/>
<path transform="translate(418,434)" d="m0 0h2v8l-5 13-13 24-7 12-3 3-5 9-1 2h-2l-1 4-1 3h-2l-2 5-9 15-5 10-1 7-3 3h-2l-2 9-4 9-3 9-4 8-4 13-7 13-4 1-2 3 1-7 5-10 3-4 2-5 4-8 5-11 1-6-3-13 1-8-3 1-4 6h-3l2-6 14-24 6-10 7-11 11-17 10-15 6-8h2l2-4 9-11 6-7 1-2z" fill="#75D7F9"/>
<path transform="translate(1277,746)" d="m0 0h2l2 3v3l2 1 3 7 6 26 2 16 5 20 2 9 6 9 5 5 6 4 5-1 3-2v11l-3 30-2 11-4 36-2 9h-1v-10l2-20-1-7-1-4-5-1-5-5-3-1-2-3v-4h-4l-1 3-2 26h-1v-13l1-18v-28l-2-29-4-33-7-33-2-8z" fill="#CA282A"/>
<path transform="translate(1182,909)" d="m0 0 3 4 3 9 6 4 5 4 4 5 8 3 6 3v2l3 1 1 5-2 20-2 6-2 11-3 16-3 10-1-2-7-1-3-6-4-11-7-9-5-12-2-8v-20l-2-3 2-19z" fill="#FCD17E"/>
<path transform="translate(1020,921)" d="m0 0h2l1 4-1 15-1 4 2 5-4 2v5l-6 7-3 18-4 8-2 13-3 7-4 5-6 1-1 6-7 3-9 3-11 7-9 7-5 3-14 7h-3l1-6 8-7 12-12 7-8 8-8 11-14 10-14 11-18 8-16 8-23 2 1z" fill="#51A8EE"/>
<path transform="translate(308,870)" d="m0 0 2 1v2l6-2 11 1v6h3l2 5v3l8 1h3l3 4 2 10-1 12-3 1-2 11h-2l-3 11-2 9v7l2 10 4 9 1 11h-2l-8-16-4-11-5-11-6-16-4-13-6-21-1-14 2-6z" fill="#63C3F9"/>
<path transform="translate(398,799)" d="m0 0 1 2 7-1 2 1 5-2 10 2h8 3l6 2v2h2l6 28 6 20v3h-2v-2h-2l-4-8v-2l-7 3h-2v2l-4-1-10 2v3h-6l-6-1-2 4-3-10-3-15-4-17z" fill="#62C2F9"/>
<path transform="translate(1184,875)" d="m0 0h2l4 5h12l13 4 8 6 2 6v31l-4 30h-1v-11l-3-3v-2l-4-1-7-3-5-3-2-4-4-2-5-4-3-2-5-13 1-28z" fill="#FEC069"/>
<path transform="translate(888,572)" d="m0 0 21 1 6 1v1l-7 2-3 2-11 2-5 3v6l1 4 7 2 9 6-10-1-30-4-8-3-9-1v-2l-12 1-10 5-2 4 1 9h-7v2l-27 4-20 5-5 2h-6l4-4 14-8 21-13 12-5 9-4 33-11 15-4 5-1z" fill="#F69B4A"/>
<path transform="translate(1295,887)" d="m0 0 4 1 2 7 4 1 6 5 3 1 3 8-1 13-1 10v15l-4 19-7 25-6 18-6 29-1 11-5 4-2 2 1-9-1-7 2-13 4-8h2l1-6h2l1-5 10-33 1-7-5-2-7-1-4-3-2-6-2 14h-1l1-18 3-35h2l1-26z" fill="#D3552A"/>
<path transform="translate(1417,625)" d="m0 0h14l7 3 6 5 4 8 1 3v13l-5 9-9 7-3 1h-15l-10-5-6-8-2-4v-13l3-6 7-8h2v-2z" fill="#F8693B"/>
<path transform="translate(1178,815)" d="m0 0h2l2 6 2 10 4 11v3h4 20l2 1 1-3 5 5 2 5 2-4 3 33v50l-3 24v7l-2 3-2 9-2 2 1-16 4-25 1-9v-31l-3-7-6-4-13-4h-12l-4-4v-2h-2v6h-1l-1-26-3-28-1-5z" fill="#F79C4B"/>
<path transform="translate(655,620)" d="m0 0 1 2-3 10-4 11 5-2 1-3h2v-2l6-2v-2l10-4 4-4 10-1 1 3-9 12-2 4h-2l-2 5-1 5-12 12-10 13-1-3-8 7-4 5h-2l-2 4-4 1-4-2-1-5-3-1-1 2-5 5-5 10-1-4 8-16 13-22 11-20 10-14z" fill="#D7702A"/>
<path transform="translate(816,271)" d="m0 0h28l27 2 27 4 26 5 50 12 29 9 13 5 1 4-7 3h-15l-15-2-4-1v-2l-9-1-22-4-9-2-1-6-4-2-4-4v-2l-2-1 1-1h-7l-15-4-2-1h-7l-16-2-18-2-18-1-1-1-23-1-55-1v-1l18-1z" fill="#72D4F8"/>
<path transform="translate(1170,777)" d="m0 0 2 2v4h2l5 12 1 4h2l1 5 12 1 6-9 1-3 3-1 7 3 2 6h2l5 27 2 14v12l-2-1-2-5-4-4-1 2h-22l-2 1v-2h-2l-6-16-2-14h-3l-5-24-2-8z" fill="#F18143"/>
<path transform="translate(1089,1197)" d="m0 0 2 1-4 8-2 6 9 4 3 2-1 8-8 14-3 4h-2v2l2 1-14 10-17 12-27 15-36 18-12 5-21 7h-7l1-2 13-5 11-4 12-5 16-8 13-6h2v-2l7-4 14-10 12-6 11-6 7-5h2l3-9-4 1v-2l-18 1-1-6 2-2v-5l-2-2 11-9 13-11 10-8z" fill="#DB762E"/>
<path transform="translate(292,655)" d="m0 0 2 2-1 4-3 8-3 14-3 8-6 30 7-1 6 6h6l3 3 6 2 1-6 1 4-5 25-3 19-2 4-6 1-10-3-7-4v2l-5 1-1-1v-17l5-30 3-21 5-19z" fill="#62C2F8"/>
<path transform="translate(200,624)" d="m0 0h9l10 5 6 8 3 8-1 7-4 9-7 8-9 4h-10l-7-3-7-7-3-8v-11l4-8 8-8z" fill="#74D7F8"/>
<path transform="translate(651,1298)" d="m0 0 38 1 56 1 4 2 13 2 5 3 5 9 3 2 11 2v1h-31l-7-1-26-1-19-2-16-6-7-1-4 1-7-3-7-2-8-6z" fill="#F69B4A"/>
<path transform="translate(465,705)" d="m0 0h1v36l6-5 1-2 16-6 9-2 4-1 5 1v-7h1l-1 42-1 3-24 8-6 3-5 2-2 2-3-8-2-18v-39z" fill="#F24535"/>
<path transform="translate(1e3 1259)" d="m0 0h3l-1 4-19 10-12 4-6 4h-3v2l-11 7-10 8-17 8-29 4-12 3-4 4 7 2h3l-1 3-18 2h-29l-6-2-19-1 1-3 17-3 39-9 31-8 14-4 15-5 12-5 16-6 16-8 13-6z" fill="#D3582A"/>
<path transform="translate(595,582)" d="m0 0h2l-1 5-9 14-9 15-8 16-7 16-1-4-2-2-2 6-4 6-4 2-4-8-4-5-2-6h-5v4h-2l-3 9-6 11-1-2 2-9 5-12 7-18 1 2h3v-2h2l3-9 5-7 2-6h9l4 4 4 1 1 8h4v-5h2l-1-4 8-7 6-8z" fill="#B82B26"/>
<path transform="translate(1180,633)" d="m0 0 7 6 4 5 10 16 2 3 2 12-4 1 1 12-1 10v7l-2 6-6-2-10-10-5-3-1-2h-3l-2-12-1-3v-10l3-12 2-15z" fill="#FEC16A"/>
<path transform="translate(1288,955)" d="m0 0 3 3 1 4 3 2 9 2 3 2v7l-10 33-2 5h-2l-1 6h-2l-2 7-1 1-2 14 1 7-2 3-6-3v2h-3v2l-3 1-4-1-3 11h-2l-2 7h-2l3-10 9-27 6-24 2-10 2-7 3-14 1-8h2z" fill="#E96C34"/>
<path transform="translate(1344,719)" d="m0 0h2l4 17 5 26 2 28v68l-3 31-5 26h-1l-1-7 2-10v-3-23l1-17-1-3 1-6v-6l-1 5-5-2v-6h2l1-4-1-7 4-1v-6l1-4-2-6 1-3v-3-4h-2l-1-9-2-7h-2l-2-8 1-9-4-11-2-10v-15l2-2h2v6l3 1 2-4h-2l1-3z" fill="#F07333"/>
<path transform="translate(283,447)" d="m0 0 11 1 6 3v2l3 1v2l2 1 6 8 5 5v15l-1 3-4 3-4-2v-2h-2l-6-13-5-3v-2l-4-1-1-1h-7l-10 6-2 3-2 9-3 9-1 6-5-4-4-1-3-8v-13l4-9 6-8 9-6 7-3z" fill="#8AE7FC"/>
<path transform="translate(598,639)" d="m0 0 1 2 7 2 8-1 3 3v2h3l1 2 3 1-1 12-2 6v7l-9 16-4 11-4-1-2-5-5-1-2-5-5-4-6-2 1-9 3-12 5-11 1-4h2z" fill="#FEB058"/>
<path transform="translate(869,1277)" d="m0 0 4 1 17 1 3 9 2 5-3 3v3l12-1-4 2-52 13-14 3h-6l1-4 7-6 2-9 3-6-1-4 11-4z" fill="#FBCF7C"/>
<path transform="translate(1549,888)" d="m0 0 6 1 5 5 1 7-6 9-7 5-18 5h-44l4-2 8-1 1-7 3-7 3-2 1-6-16-1v-1l34-1 21-3z" fill="#F28043"/>
<path transform="translate(647,1296)" d="m0 0h4v3l4 1 8 6 7 2 9 2 3-1 13 4 8 3 21 2 24 1 7 1 40 1v1l-10 1 1 3 7 1v1l-11 1-1 1h-20l-24-1-36-4-19-3-6-2-18-3-18-6-2-2 4-7 1-5z" fill="#DA752E"/>
<path transform="translate(1193,580)" d="m0 0 4 1v2l4 1 7 9v2l3 1 3 5 4 5 5 5 6 8 4 6 14 8 1 4 5 1 2-2v2l3-1 10 9 1 3h2l7 10 4 9 4 6 4 11 3 7 2 7-1 4-6-16-2-4-3-2-4-10-4-5v-2h-2v-2h-2v-2l-8 1-5 2-6-2-7-4-1-2-4-2-2 2-13-24-11-18-11-16-9-13z" fill="#B22226"/>
<path transform="translate(344,545)" d="m0 0h3l1 3-1 6 3 12-2 9-12 24-3 4-5 14-4 16-4 1-5-12v-2h-2l-1-6 3-12h-1l1-7 3-7 6-12 3-7 9-17h4l2-4z" fill="#78DBFB"/>
<path transform="translate(983,638)" d="m0 0h5l18 13 12 11 8 7 8 9-1 2-11-11-5 1-3 4h-2l-2 4-3 13-3 1-19-19-13-10 1-3-3-9 9-8 1-3z" fill="#D15529"/>
<path transform="translate(250,1154)" d="m0 0h17l10 1 12 7 9 7 3 4v6l-19 2h-20l-14-1-6-3-5-6-1-3v-9l4-4z" fill="#50A7ED"/>
<path transform="translate(399,713)" d="m0 0h1v16l6-8 5-1 5 1 2 2 6-2h2l1-3 4-1v-3l3-1 2 3 1 46 2 23v9h-1l-3-21-1-15-4-1-12 3-3-2-6-2v-2l-4-2-4-4-2-1-1 2-1-1v-15z" fill="#43A3E5"/>
<path transform="translate(1206,1082)" d="m0 0h7v21l-6 11h-2l1-11-2-2-14 7-6 5h-2v2l-11 9-5 3h-2v2l-8 7-3 6-6 7-10 8-6 3-4 4-2-1 8-9 13-17 6-9 9-12 8-15 9-4 6-7 7-4 9-3z" fill="#F28344"/>
<path transform="translate(1347,470)" d="m0 0h8l7 2 4 3 4 1 2 5v8l-1 4 2 1v2h-2l-2 5-6 5h-2v2l-8 4-3 1h-10l3-2-4-2v-2l-5-2-2-1v-3l-2-1 1-2-2-1v-13h2v-2l6-2v-2h3l2-4h3l1-3z" fill="#E93B31"/>
<path transform="translate(670,972)" d="m0 0 4 2 19 13 14 10 10 7v3l-16 5-4 4-8-1-16-6-7-4 2-2-3-7v-6l-3-8-1-5 3-2 3 1 1-3z" fill="#8D181F"/>
<path transform="translate(837,591)" d="m0 0h12v2h9l8 3 30 4 25 5 12 4-1 3-2 1h-7l-13-4-15-2h-16l-6 5h-6v2l3 1-9-1-11-2-31-1v-1h7l-2-4 1-7 2-3z" fill="#D25629"/>
<path transform="translate(1359,1151)" d="m0 0h17l10 5 1 2v7l-4 7-7 5h-33l-5 3h-2v2l-13 8-2-1 1-5 7-10h2v-2h2l2-5 4-5 9-6z" fill="#F08043"/>
<path transform="translate(98,800)" d="m0 0 5 1v2l12-1 7 1 12 2 1-1 14-1h9l5 2h25l2 4-4 2-141 2-12 1 3-1 1-2h4l1-2-8 1-9 2v-4l9-4h10l17-1 6-2 8 1 1-1h5l7 2h7v-2z" fill="#2F303A"/>
<path transform="translate(266,774)" d="m0 0h1v37l2 3h9l8 5 5 3 7 1 1 1 2 35-4-4h-3l-4-7-10-1-3-2-5 1-3 4-1 11h-2l-2-27v-38z" fill="#42A1E5"/>
<path transform="translate(204,1086)" d="m0 0h7l10 4 11 7 13 11 8 5-3 1-1 3h-31l-9-3-9-5-4-4-2-4 1-6 7-8z" fill="#2E7A59"/>
<path transform="translate(975,733)" d="m0 0 3 4 5 13 2 6 1 14v12l-3 2-20 4-3-1v-20l-3 3-2 4-2-5-1-8-1-4 4 2 2-4h3l-1-3 1-5 1 2h4l1-2h2v-2l6-4 1-5z" fill="#D92B2D"/>
<path transform="translate(508,789)" d="m0 0 2 1 3 17-2 10-4 6h-2v2l-5 4-7 8-3 2-1 11-2 1-3-7v-3h-2l-8-25 1-4h2l3-5 7-2 8-3 9-6h2v-2h2z" fill="#B22226"/>
<path transform="translate(639,953)" d="m0 0 3 1v2l5 1h3l19 13 1 3-3 3-5 1 3 12 1 2 1 7 2 6-6-1-17-12-7-5 2-2-5-7v-2h-2v-3h-2l-3-5 1-7 2-4z" fill="#B22226"/>
<path transform="translate(396,805)" d="m0 0 3 1 3 17 4 16-1 3-1-2-6 2-17 4-8 4-2 3h-2l-7-30-1-8h2l3 15 4-2 2-10 2-1 5-1 8-1 5-1h2l1-6z" fill="#43A2E5"/>
<path transform="translate(1182,909)" d="m0 0 3 4 3 9 6 4 5 4 4 5 8 3 6 3v2l3 1 1 5-2 20h-1v-6l-8 3-10-1-8-10-6-7-3-11-1-11-2-1 1-13z" fill="#FECA77"/>
<path transform="translate(1313,985)" d="m0 0 4 1-1 8h2l2-4 4-1-1 5-8 22-12 27-6 11h-2l-1-3-5 9h-4l-1-4 5-5 1-5 5-28 6-20 2-2 1 1 3-11 6 1z" fill="#F17535"/>
<path transform="translate(717,1006)" d="m0 0 5 2 12 2 45 14 14 7v2l-14 4-5-2-7-3-22-5-29-6-12-3-7-2 1-2h2l1-3z" fill="#3275D9"/>
<path transform="translate(411,463)" d="m0 0 1 3-1 2h2l-1 5-8 18-3 1-2 6-8 15-8 17-4 6-9 20-6 14-2 8-7 18-4 15-3 9-3-4 1-3-1-5 5-15 1-8 7-19 9-21 7-16 9-16 8-16 9-17 8-14z" fill="#2F303A"/>
<path transform="translate(235,532)" d="m0 0 13 2 8 5 3 9v7l-2 1-8-4-10-4-9 1-10 4-4 5-3 8 3 10 1 1v6l-4-2-5-3-4-10v-11l5-12 8-8 9-4z" fill="#75D7F7"/>
<path transform="translate(1295,887)" d="m0 0 4 1 2 7 4 1 7 6-2 6-3-3h-4l1 3h-2v9l-2 2v9l-1 9 1 8 3 3 7 2 1 5-3 16-1-3-5-2-7-1-4-3-2-6-2 14h-1l1-18 3-35h2l1-26z" fill="#EF4534"/>
<path transform="translate(578,694)" d="m0 0h1l-1 26 5 4 3 1 3 6 3 2 7 1v2l3 1-1 10v21l-3 6-1-3h-3l-1-2h-3v3l-6-1-2-7-3-12 1-6h-2l-1-4v24l1 15h-1l-2-14-1-20 1-32z" fill="#D46B2C"/>
<path transform="translate(613,967)" d="m0 0 8 6 25 17 16 11-1 2 5 4v2l4 1 1 7-4 5-5 1-1 3-2 1h-7l-20-7-16-7-5-5 5 2 12 6 7 2h4l-1-11v-11l-7-11-6-5-5-5-5-3z" fill="#303039"/>
<path transform="translate(1248,1097)" d="m0 0 1 4-4 12v9l5-1 3-1 1 4-9 10-9 11-14 18-11 12-14 15-6 7-3-1 14-19 10-18 7-11 6-10 5-9 7-14h2l1-6 5-10z" fill="#E86F33"/>
<path transform="translate(958,307)" d="m0 0 9 1 9 2v2l19 2h16l6-2v-3l9 3 17 8 28 12 14 7 9 6 12 12-3 1-25-12-14-7-22-10-15-5-20-4-23-4-11-2-9-3-6-3z" fill="#429FE4"/>
<path transform="translate(336,1060)" d="m0 0 4 2 10 15 11 14 11 13 8 9 8 7 9 9 8 7 7 7 16 12 19 14 6 5 13 10 15 10 17 10 19 11 4 3-3 1 3 3 1-2v3l9 3 5 3 10 4-1 2-10-3-36-18-13-8v-2l2-2-19-11-8-5v-2l-5-2-6-5-3-1v-2l-5-2-10-9-3-1-5-5-11-8-4-4-8-6v-2h-2v-2h-2l-5-5v-2l-4-2-13-12-2-5-5-5v-2l-4-2-5-8-5-5-1-3h-2v-2l-3-1v-2h-2l-4-7-2-5-3-3z" fill="#2F303A"/>
<path transform="translate(1413,1085)" d="m0 0h7l5 4 3 5v7l-4 6-8 5-5 2-20 2-10-1 1-5 6-9 6-6h2v-2l7-5z" fill="#E56A33"/>
<path transform="translate(393,491)" d="m0 0 1 2-8 16-10 19-6 12-12 28-11 31h-2v2h-2l-3 11-2 3-2 8-2 10-3 6-1 9-3 7-1 2h-2l-1 4-3 3-2 9h-1l1-13 4-19 3-16 2-8h2l1-4 4-1 7-15 3-10 6-12 3-10 5-13 4-4 2-7 4-9 7-11 5-9h2l1-4 1-3h2l2-6z" fill="#50A8ED"/>
<path transform="translate(1027,794)" d="m0 0 2 1 7 24v19h2l1 4-1 32-2 7-3 1v3l-5 2 3-14v-7l-5-13-3-3v2h-2l-1 13-5 24-6 10h-2v2l-2-1 7-14 4-13 7-39z" fill="#61C0F6"/>
<path transform="translate(209,962)" d="m0 0 9 1 8 5 4 5v7l-5 9-7 6-2 1h-8l-6-3-7-8-2-5 1-7 4-6 7-4z" fill="#72D4F8"/>
<path transform="translate(281,1088)" d="m0 0 6 1 8 8 11 14v6l-5 6h-3l-1 2-1 1h-5l-13-8-5-5-5-4-2-3v-6l5-5 6-5z" fill="#89E5F9"/>
<path transform="translate(1545,813)" d="m0 0h16l4 2-3 1 4 6v7l-3 4-17 2h-20l-7-1v-2l-5-1-10-4v-2l-3-2 7-2 4-1h23l3-2h6l4-2 6-1-9-1z" fill="#E96E33"/>
<path transform="translate(333,1211)" d="m0 0h6l6 4 6 7 2 7-3 6-6 5-3 1h-11l-9-4-5-5-3-6v-6l7-4z" fill="#68BCBD"/>
<path transform="translate(1293,1212)" d="m0 0h6l17 5 4 3-1 7-6 8-8 6-2 1h-11l-11-6-2-2 1-8 2-3h2l2-5 3-3h2v-2z" fill="#F69B4A"/>
<path transform="translate(1343,1084)" d="m0 0 5 1 6 5 4 6-3 9-8 10-8 7-5 2-6-1-10-7 2-4 10-13 8-10z" fill="#F9FDF8"/>
<path transform="translate(1184,875)" d="m0 0h2l4 5h12l13 4 8 6 2 6v31h-1l-1-15-5-3-15-8-10-3-5-1-3-3-2 2v-15z" fill="#FEB058"/>
<path transform="translate(486,1152)" d="m0 0 5 1 9 7-3 4-3 2-1 5h-3l-1 3h-1v6l-4 4 1 2h-3l1 3-5 1 2 3-5-2-10-7-9-7 4-2 4-7h2l4-5h2l2-4 3-3z" fill="#43A3E5"/>
<path transform="translate(1484,727)" d="m0 0h28l2 1v16l-6 8-6 4-3 1h-19v-1h6l1-7-3-4v-8l-2-1 1-2-8-1v-3z" fill="#EF7F42"/>
<path transform="translate(232,551)" d="m0 0h9l6 4 5 6v19l-1 2-10 5-5 1-5-4-5-8-3-10-2-3v-6l9-4z" fill="#51BFED"/>
<path transform="translate(1413,963)" d="m0 0h9l7 4 6 8v8l-6 8-8 6h-7l-6-5-6-12v-6l6-8z" fill="#F76A3B"/>
<path transform="translate(1326,789)" d="m0 0h3l3 6-1 5-1 2h2v3l4 2v5l-1 4 5 5v9l-1 3 1 2-1 14h-3l-1 6-1 11-3 7-2 7-4-1 3-14v-7l-2 12-1 7h-1v-9l1-11v-36l-2-20 2-3z" fill="#F17033"/>
<path transform="translate(839,1286)" d="m0 0 4 1-2 1 1 4-4 8-2 7-7 6v4l-12 2h-10l-2-4 2-10 3-6-12-3v-2l26-4z" fill="#FEBE68"/>
<path transform="translate(340,390)" d="m0 0 9 3 7 8 1 9-3 6-9 7-9 3-8-9-2-5v-10l4-7 5-4z" fill="#43A2E5"/>
<path transform="translate(576,740)" d="m0 0 2 2v4h2l1 12 3 9 2 3 4 2v-3l4-1v3h3l1 2 2-7 1-13 2 4v18l-1 17-3 16-1 2-5-1-4-8v-3h-2l-5-14-2-2-1-8h-2l-1-8z" fill="#E86E33"/>
<path transform="translate(608,806)" d="m0 0h1l3 41 4 24 3 9h-3l-6-7-7-12-8-16-6-14v-3l2-1 4-9 5 1 5 8v2h2z" fill="#E66C33"/>
<path transform="translate(206,717)" d="m0 0 9 3 3 3v2l4 2 3 1 5 11-1 8-5 7-4 1 1-4 2-5v-10l-5-5-10-5-19 2-15 1h-35l-1-2-11-1 3-3 5-2 5-1h14l-1 2 10-2 17 1 3 3 1-3 6 1 14-4z" fill="#2F303A"/>
<path transform="translate(812,261)" d="m0 0 33 1 3 1 17 1 2 1v2l8-1h11l4 2 7 3 5 2-1 2-12-2-8-2-1-2-1 1h-15l-5-1-2 2-17-1h-35l-9-1-5 1-15 1-14-3 4-3 8-1h11l4-1h12l9-1z" fill="#2F303A"/>
<path transform="translate(1285,970)" d="m0 0h1v8l5 1 1-3 3 4v8l-6 21-7 17-3 6-2 6-5 13-4 1-3 11h-2l-2 7h-2l3-10 9-27 6-24 2-10 2-7 3-14z" fill="#EF7232"/>
<path transform="translate(506,739)" d="m0 0h1v22l-1 3-24 8-6 3-5 2-2 2-3-8-2-18v-9h1l3 21 2 1 1-5 4-6 21-7 8-4h2z" fill="#E83A31"/>
<path transform="translate(183,842)" d="m0 0 32 1-4 2-1 4-7 3-7-1-3-2v-2h-4l1 2-6 2-7-1-8-2-1-1h-35l3 2-4 1h-15l-5-2-4 2-4-1-1-1h-16l-27 1-21-3-2-2h66l32-1z" fill="#2F313A"/>
<path transform="translate(962,292)" d="m0 0 8 1 27 8 17 6 3 2v3l-7 3h-15l-15-2-4-1v-2l-9-1-22-4v-1h15l4-3h2v-5l-4-2z" fill="#60C0F7"/>
<path transform="translate(232,1025)" d="m0 0h12l8 4 3 3v2h2l2 4v6l-5 6-10 4h-6l-5-4-6-9v-10l3-5z" fill="#85E1F9"/>
<path transform="translate(1549,888)" d="m0 0 6 1 5 5 1 7-6 9-7 5-14 4h-7v-3l3-7 1-7 1-4-1-7 14-2z" fill="#F79C4B"/>
<path transform="translate(1387,1023)" d="m0 0 8 2 6 4 2 3-1 7-6 9-5 4-8 1-10-6-3-4v-6l4-6 8-6z" fill="#F7E19D"/>
<path transform="translate(591,656)" d="m0 0 2 2 2 9 9 3 6 4 2 3 2 10-6 15-4-1-2-5-5-1-2-5-5-4-6-2 1-9 3-12z" fill="#F69B4B"/>
<path transform="translate(508,772)" d="m0 0h1l1 8v10l-2 4h-2v2l-15 9-7 2h-4l-2 5-3 2-2-3-3-15 1-4 3 1 2-4 19-4 6-1h5l1-11z" fill="#CC282A"/>
<path transform="translate(1291,390)" d="m0 0h7l6 4 5 7v13l-6 7h-11l-3-3v-2h-2l-6-12 1-5h2l2-5 3-1v-2z" fill="#F14535"/>
<path transform="translate(572,1283)" d="m0 0 9 1 33 7 33 5-4 1-1 7-3 5 4 3-8-1-28-11-29-13-6-3z" fill="#2C7959"/>
<path transform="translate(848,1284)" d="m0 0 3 1 2 2h10l2 4 1 5 4 1v2l-22 11v3l-14 3h-6l1-4 7-6 2-9 3-6-1-4z" fill="#FEC976"/>
<path transform="translate(1231,1213)" d="m0 0h2l-2 5-12 12 4 1 2 5 3 3-13 10-15 9-9 4-6 1 1-5 12-14 8-9 11-9 10-10z" fill="#EDEFD2"/>
<path transform="translate(652,777)" d="m0 0h1v7l10 3 12 7 8 7 9 13-1 2-3-1h-8l-4-1v-2l-6-1-14-4-3-9z" fill="#DC2C2D"/>
<path transform="translate(333,1177)" d="m0 0 8 1 11 9 9 9 7 8 10 9 8 7 8 8 11 9 26 20 11 7 11 5-1 3-14-4-5-3v-2l-4-1-3-2v-2h-2v-2l-5-2-2-1v-2h-2v-2l-5-1-1-3-4-2-16-12v-2h-2l-5-5-8-7-5-5-2-4h-2v-2h-2l-4-6-8-7-12-11v-2l-6-2z" fill="#2F303A"/>
<path transform="translate(1023,850)" d="m0 0 4 2 3 9 2 5v7l-4 14-9-3-10 19-3 4-1 8-1 5-6 2-3 4-1 7-9 5h-2l2-5 8-14 12-18h2v-2l4-4 4-10 5-26 1-7h2z" fill="#78DBFB"/>
<path transform="translate(888,572)" d="m0 0 21 1 6 1v1l-7 2-3 2-11 2-5 3v6l1 4 7 2 9 6-10-1-14-4-6-4-6-9-1-3-9-2v-3l14-3z" fill="#FDAD56"/>
<path transform="translate(670,972)" d="m0 0 4 2 13 9-1 4-3 5-1 9 2 9 2 2-9-1-11-6 2-2-3-7v-6l-3-8-1-5 3-2 3 1 1-3z" fill="#9F1C20"/>
<path transform="translate(652,785)" d="m0 0h1l1 13 2 9 7 1 13 4v2h14l5 4v3h2l2 5-7-2-15 3-10 3-1 4-5-3-7-19-2-13z" fill="#9E1C20"/>
<path transform="translate(772,718)" d="m0 0 7 1 13 5 7 3 4-1 9-3 8 12 1 6h2l2-4 4 3 3 1v2l7-1h3l-9 9-10 15h-1l-3-13-11-13-9-9-15-8-12-4z" fill="#FAE19C"/>
<path transform="translate(193,918)" d="m0 0h34v4l-8 4-22-1-17 2-4 1-5-2-8-1v2l-6-1h-22l-2-1h-16l-2-1v-3l59-1z" fill="#2F303A"/>
<path transform="translate(1294,1146)" d="m0 0 4 1 8 5 6 5-2 4-4 6-7 5-5 2h-3l-1 2-5 2-4 2v-9l-2-2 1-6 5-7 6-7z" fill="#FCFEFD"/>
<path transform="translate(837,591)" d="m0 0h12v2h9l8 3 25 3v1l-33 1-6 3-1 2h-2l-1 4-29 1v-1h7l-2-4 1-7 2-3z" fill="#E97E2F"/>
<path transform="translate(1485,813)" d="m0 0h60l13 1-4 2-9 1-1 2h-6l-3 2h-23l-10 2-10-1-15-2v-2l-7 1-5-2v-3z" fill="#FA6B3B"/>
<path transform="translate(196,818)" d="m0 0 12 2 8 3 2 5-1 6-5 4h-3l-1 2h-4v-2l-5 1-4-1v-2h-2v-2l-11-3-5-2v-3l-2-3 8 1-1-4h6l4-1 3 1z" fill="#78DBFB"/>
<path transform="translate(250,1154)" d="m0 0h17l10 1 12 7 9 7 3 4v6l-19 2h-20l-14-1-3-2h30l3-2 1 1 2-4 5-1-2-5-4-5-1-3-4-2h-22l-5 2-1 7h-2l-1 5h-3l-1 3-3-3-1-3v-9l4-4z" fill="#419DE4"/>
<path transform="translate(510,336)" d="m0 0h4l-1 4-13 10-14 10-13 11-10 9-8 6h-2l2-5 5-5 4-6h2l1-3h2l1-5-3-1-5 2-2-4 16-10 7 1 1-1 9-2 7-3 9-6z" fill="#F9FDF8"/>
<path transform="translate(289,448)" d="m0 0 8 1 3 2v2l3 1v2l2 1 6 8 5 5v15l-1 3-4 3-4-2v-2h-2l-6-13-5-3v-2l-4-1v-1h5l-2-8-2-7 1-2z" fill="#76D9FA"/>
<path transform="translate(1262,1084)" d="m0 0 7 2 4 4 3-1-2 6-10 15-5 7-11 1-2-5 3-9 5-12 5-7z" fill="#D15429"/>
<path transform="translate(506,327)" d="m0 0 6 1 3 3 1 6-2 1v-2h-4l-2 4-11 7-6 2-7 1-4 1-4-1-13 8-2-1 3-4v-2h3v-2l4-1v-2l4-1v-2l5-3h2v-2h3v-2l7-2v-2z" fill="#EAEED7"/>
<path transform="translate(1123,620)" d="m0 0h2l7 8 10 12 13 20 9 15 14 24 8 15 11 28 6 16-1 3-3-5v-3h-2l-4-10-6-12-5-15-4-8v-3h-2l-6-12-6-8-12-21-4-6-5-10v-2l-2-1-6-7-3-5-4-4-5-7z" fill="#D6692A"/>
<path transform="translate(1384,533)" d="m0 0h13l10 4 9 10 4 8-1 3-5-9v-2h-2l-4-4-9-2-8 2-16 8h-4v2l-8 4h-2l-3 10h-1v-8l6-12 9-9 8-4z" fill="#F79E4C"/>
<path transform="translate(1298,869)" d="m0 0 3 4-1 2h2l3 7 4 6 5 2h2l1-2v2h3l1 2-1 18-4 31-2 2v-10l2-20-1-7-1-4-5-1-5-5-3-1-2-3v-4h-4l-1 3-2 26h-1v-13l1-18 3-16z" fill="#D72B2C"/>
<path transform="translate(640,657)" d="m0 0 3 3 1 5-2 9 6-5 5-5 4 1-1 4-6 8-1-3-8 7-4 5h-2l-2 4-4 1-4-2-1-5-3-1-1 2-4 2 2-5 2-3h2l2-4 4-6 10-11z" fill="#DB762D"/>
<path transform="translate(816,271)" d="m0 0h28l27 2 27 4 21 4v1h-8l-8-1-1 1h-7l-16-2-18-2-18-1-1-1-23-1-55-1v-1l18-1z" fill="#61C2F1"/>
<path transform="translate(677,1060)" d="m0 0 11 2 1-1 27 1-2 2 10 2 10-2 19 1 5 2 4 1-1 2-2 2h-41l-20-2-4-4-4 1-6-2-4-1-4-2z" fill="#2F303A"/>
<path transform="translate(723,1318)" d="m0 0 25 1 7 1 40 1v1l-10 1 1 3 7 1v1l-11 1-1 1h-20l-24-1-13-2-4-2 3-1 18-1-6-2-12-1z" fill="#E3772E"/>
<path transform="translate(784,709)" d="m0 0h14l8 7 5 6-1 3-8 3-9-2-11-5-6-2-19-3-21-2v-1h40z" fill="#F3EFD4"/>
<path transform="translate(923,506)" d="m0 0 9 1 22 4 2 2-5 2 3 2v2l9 3 2 1v4h3l1 4-1 2-6-2-8-1v-2l-9-2-8-3-7-6-5-2v-5l-3-2z" fill="#DC772F"/>
<path transform="translate(344,545)" d="m0 0h3l1 3-1 6 2 7-1 8-2 5h-3l-3-3-5 2-2 5-5 6-6 4h-2l2-9 8-16 6-11h4l2-4z" fill="#88E5FA"/>
<path transform="translate(317,465)" d="m0 0h2l2 4v3l3 1 1 2v7l-1 5-2 11-3 1-1 4-4 2-1 2h-2l-2 5-8 4-12 2-14-1-6-3 3-2-10-4v-2h-2v-2l-4-2-4-10-1-2h3l4 8 7 7 10 6 7 2 9-1 11-4 6-4 7-8 3-7v-21z" fill="#2E303A"/>
<path transform="translate(1196,380)" d="m0 0 6 1 5 3 5 2v2l4 1h3l7 7 2 4 2 13-4 1-3-1v-2l-10-5-4-5v-2h-2v-2h-2v-2l-4-2-5-6-1-6z" fill="#D2542A"/>
<path transform="translate(449,1020)" d="m0 0 4 2 11 13 23 23 8 7 14 12 13 10 11 8 15 11 26 15-1 3-5-1-11-7-7-6-7-3-9-7-6-4-10-8-9-7-6-5-3-1v-2h-3v-2h-2l-4-4-2-1v-2h-2l-3-3v-2h-2v-2h-3v-2h-2l-2-5h-2v-2l-3-1v-2h-2v-2l-5-2v-2h-2v-3h-2l-2-7h-2v-2l-3-1v-2h-2z" fill="#2E303A"/>
<path transform="translate(1019,661)" d="m0 0 6 1 8 7 3 5 5 5 9 12 5 4 12 20 10 14 5 13 1 6-4-4-12-19-14-23-9-10-8-10-9-10-7-8z" fill="#FCC976"/>
<path transform="translate(508,789)" d="m0 0 2 1 1 4v7l-1 4v3l-8 8-8 3-15-1-5-2 1-4h2l3-5 7-2 8-3 9-6h2v-2h2z" fill="#B82B26"/>
<path transform="translate(439,735)" d="m0 0 3 1v26l1 3 2 24 3 18 1 9 2 8v6l-1 1 3 2 2 8v6l-2 2-3-9-1-6-2-1-6-28 1-4-1-2v-7l-1-1-1-7-1-22 1-5-1-2v-17z" fill="#2F303A"/>
<path transform="translate(599,744)" d="m0 0 2 1v23l-3 6-1-3h-3l-1-2h-3v3l-6-1-2-7-3-12 2-7 1 2h7 4z" fill="#D76F2A"/>
<path transform="translate(1354,773)" d="m0 0 2 1 1 16v68l-3 31-5 26h-1l-1-7 2-10v-3-7l3-1-1-3v-19l1-7v-12l1-15v-16l1-5-1-4v-31z" fill="#E7773D"/>
<path transform="translate(1399,540)" d="m0 0 9 2 4 3v2h2l4 7-1 5-4-5-10-5-7-1-2-1-1 2-5 1-14 7-2 5-4 3h-3v2h-3v6l-4-1-1-5 4-10 8-4h2v-2l8-3 14-7z" fill="#F18143"/>
<path transform="translate(393,491)" d="m0 0 1 2-8 16-10 19-6 12-12 28-11 31-2-4-1-8 6-12 3-10 5-13 4-4 2-7 4-9 7-11 5-9h2l1-4 1-3h2l2-6z" fill="#49ABE8"/>
<path transform="translate(975,733)" d="m0 0 3 4v7l-3 7-3 5-1 8-2 4-1 4-2 4h-2l-1 4-2 4-1-17-3 3-2 4-2-5-1-8-1-4 4 2 2-4h3l-1-3 1-5 1 2h4l1-2h2v-2l6-4 1-5z" fill="#F54636"/>
<path transform="translate(1022,806)" d="m0 0h4v9l-3 25-6 33-3 10-3 3-4 7h-2l-3 6-1-3 7-14 4-16 4-22 2-5 1-16 2-12z" fill="#2F303A"/>
<path transform="translate(1413,1085)" d="m0 0h7l5 4 3 5v7l-4 6-8 5-3 1h-9l3-5 5-4 1-3 3-3v-6l-5-1-4 1-7 3-9 7-1 2h-2l1-4 5-5h2v-2l7-5z" fill="#F08142"/>
<path transform="translate(1138,335)" d="m0 0 7 1 9 5 11 7v3 5l-3 4-6-1-1 1 1 2-4-2-4-4-9-7-3-5v-6z" fill="#E73C31"/>
<path transform="translate(282,466)" d="m0 0h7l5 3 4 4 1 4-3 5-8 5h-7l-10-7-1-6 8-6z" fill="#51A9EE"/>
<path transform="translate(818,465)" d="m0 0h5l-4 4-15 5-14 5-18 7-13 5-14 8-10 4-7-1 4-3 23-12 39-15 15-5z" fill="#F7DA93"/>
<path transform="translate(1233,350)" d="m0 0 12 2 9 4 5 4 2 5v9l-2 7-5-3-10-10-7-9-3-5-2-1z" fill="#9E1C20"/>
<path transform="translate(875,880)" d="m0 0 2 1-4 5h-2l-2 5-7 8-10 8-8 7h-2v2l-11 9-10 10h-1l-1-10 8-5 8-9 9-7 10-7 15-11 5-5z" fill="#CE292B"/>
<path transform="translate(1413,727)" d="m0 0h15l18 1v1l-12 1-7 2h-10l-2 5-1 2h-2l-2 5-1 6 1 2 5 2 2 1v2l4 1h-10l-6-4-4-5-2-3v-7l5-7 4-3z" fill="#F06538"/>
<path transform="translate(586,669)" d="m0 0 1 4-2 5-1 6 8 2 1 3 3 1 3 5 3 1 3 5 2 1-1 6-1 2h-4v3h-2l-1-8h-7l-2-1v-3h-2v-4l-7-2 1-11z" fill="#EE7E41"/>
<path transform="translate(1249,1196)" d="m0 0 3 1-4 7-7 7-6 10-1 3 5-1 6-1v-2l3-1-2 4-7 7-10 8-4-1-2-2v-4h-5l6-7 8-9 8-10z" fill="#FBFDFB"/>
<path transform="translate(323,589)" d="m0 0 3 1v28l-4 16h-2l-5-12v-2h-2l-1-6 3-12v-3l3-1 2-6z" fill="#8CE9FD"/>
<path transform="translate(609,820)" d="m0 0h1l2 27 4 24 3 9h-3l-6-7-7-12-11-22 1-3 6 12v-9l4 1 4 7 2 1z" fill="#C74A28"/>
<path transform="translate(260,469)" d="m0 0 4 1 1 3h6l-3 12-3 9-1 6-5-4-4-1-3-8v-13l1-3 6-1z" fill="#74D6F9"/>
<path transform="translate(462,353)" d="m0 0 2 1-8 7-5 2-2 4-15 16-8 8-14 16-11 11h-2l-3 9h4l2-4h5l-2 2-9 6-3 3-2-1-1-4 4-7 4-5 1-3 8-8 2-4 7-6 4-6 10-10 11-9 4-4 8-7 5-4h2v-2z" fill="#8CE8FC"/>
<path transform="translate(1407,893)" d="m0 0h6l-2 4 1 5 2-1 3 4v4l-8 1 1 4 4 1 1 3h-14l-5-4v-10l3-6 4-4z" fill="#F07D41"/>
<path transform="translate(116,754)" d="m0 0 4 2 3 2v2l4 1-1-3h34l39 1v2h9v4l-13 2-8-3-1-2h-28l-17 1v1l-9 1-10-3-2 1-4-4v-4z" fill="#2F313A"/>
<path transform="translate(1009,406)" d="m0 0 9 3 29 11 10 4 25 13 18 11 18 13-3 1-8-6-15-10-14-7-9-4-5-5-8-2-8-1-10-5-5-1v-2l-7-2-6-3v-2l-6-1z" fill="#A61F22"/>
<path transform="translate(1288,1218)" d="m0 0 2 1v7l3 5 4 3h8l7-3 3-1-1 4-7 6-4 2h-11l-11-6-2-2 1-8 2-3h2l1-3z" fill="#FDAF58"/>
<path transform="translate(628,697)" d="m0 0 1 2h3l-1 7-9 19-7 21-3 10-2 2-3-9 2-2v3l3-3 3-10-1-8 1-7 2-8-1-4 4-2 1-3 5-5z" fill="#ED7232"/>
<path transform="translate(639,953)" d="m0 0 3 1v2l-5 1-2 11 2 1 3 6 3 1v2l4 1 3 2v2h2v2l3 1 1 5 3 1 1 5-2 1-8-4-11-8 2-2-5-7v-2h-2v-3h-2l-3-5 1-7 2-4z" fill="#B72B26"/>
<path transform="translate(704,516)" d="m0 0 2 1-6 7-8 7-16 16-11 9-8 8-6 3-3-1 15-16 10-9 11-10 17-13z" fill="#FAD180"/>
<path transform="translate(569,861)" d="m0 0 3 3 8 15 13 20 5 6-1 2-8-1 2-5-3-2v-2h-2v-2l-5-1-3-3v-2l-2-1-6-9v-2h-2l-3-12z" fill="#C52629"/>
<path transform="translate(553,816)" d="m0 0 2 2 3 10 5 11 4 11 1 5h2l3 8 6 8 4 8 3 4 3 6v2h2l7 11 5 6 7 8 13 13 3 4-3 1-17-17-11-14-9-13-12-20-8-16-8-18-5-16z" fill="#2F303A"/>
<path transform="translate(166,889)" d="m0 0h10v1l-7 1-3 3-5 1h-27l-61-1-3-2 72-2z" fill="#75D6F8"/>
<path transform="translate(1387,1023)" d="m0 0 8 2 6 4 2 3v5l-9 7-3 1-2-2-2-6-7-4-3-5z" fill="#F9DA92"/>
<path transform="translate(435,783)" d="m0 0h2l2 11 2 6v5l-1-2h-5l-3-2-1 1h-8l-10-2-6 2-5-1h-3v-2l14-3 18-7z" fill="#50BDEC"/>
<path transform="translate(1054,606)" d="m0 0h4v2l3 1v2l5 2 9 7 1 3 4 2 1 3 4 2 8 7-1 2 4 5 5 7 5 4 7 10 6 9-1 3-12-16-11-13-7-7-4-5-6-5v-2l-4-2-15-15-5-4z" fill="#EB7031"/>
<path transform="translate(269,476)" d="m0 0h1l2 7 3 10 2 8 4 4 3 2-3 3-7-1-7-2-8-7-3-5 4 1 3 3 3-12 2-5z" fill="#62C1F8"/>
<path transform="translate(1295,887)" d="m0 0 4 1 2 7 4 1 7 6-2 6-3-3h-4l1 3h-2v9l-2 2-1 3v-2l-3-1v-7h-4l1-21z" fill="#EB3C31"/>
<path transform="translate(652,785)" d="m0 0h1l1 13 2 9 7 1 13 4v2h14l5 4-1 2-4-2v2h-17l-11-2h-4l-3-8v-4h-2l-1-7z" fill="#B12226"/>
<path transform="translate(1288,955)" d="m0 0 3 3 1 4 3 2 9 2 3 2v7l-2 7-3-2v-2l-4 1v-2l-4-1-3 3-5-1v-8z" fill="#FA6A3B"/>
<path transform="translate(354,697)" d="m0 0 2 1v80h-2l-3-14v-10l1-4-1-7-1-12 2-15v-16z" fill="#2F303A"/>
<path transform="translate(691,281)" d="m0 0h3l-1 3-8 2-18 6-13 5-9 4h-4l-1 2-6 1-1 2-4 2-11 3-1-3 4-1 1-3 10-2v-2l12-5 6-2 10-3 7-2 20-6z" fill="#2F303A"/>
<path transform="translate(586,1023)" d="m0 0 10 5 12 7 15 8 18 7 13 4 2 1v2l4-1 1 4-17-5-11-3-20-9-16-9-12-8-1-2z" fill="#2F303A"/>
<path transform="translate(961,714)" d="m0 0 7 6 5 10-3 7-7 2v3l-5-2-10-8 4-1 5-2 4-3v-6l-1-5z" fill="#FCE09B"/>
<path transform="translate(653,785)" d="m0 0h1v12l3-1v2l6 1 13 7 9 2 6 4 1 4-7-1-9-1v-2l-6-1-14-4-3-9z" fill="#CD292A"/>
<path transform="translate(647,1296)" d="m0 0h4v3l4 1 6 5v6l-3 3-6 1-14-5 4-8 1-5z" fill="#D2562A"/>
<path transform="translate(249,1180)" d="m0 0h44l2 1-1 4-3 1-12 1h-24l-9-2-4-2z" fill="#2F303A"/>
<path transform="translate(551,583)" d="m0 0h4l-1 4-8 16-5 9-5 3v-2h-4l-1-3 2-7 2-1v-2l4-2 2-7 3-1v-3l4 1z" fill="#FB6B5F"/>
<path transform="translate(800,598)" d="m0 0 4 1h-2v3h-2l-2 4-3 3-3 5h-3l-1 3-16 4-5 2h-6l4-4 14-8z" fill="#FCAC56"/>
<path transform="translate(1487,902)" d="m0 0h5l-2 4 10-4 3 1-2 4-2 5-7 1v-1h-15l-6-1 4-2-3-2-1-1h-5l3 4h-3l-9-3v-2l4-1h11l3 1z" fill="#EF7233"/>
<path transform="translate(1283,990)" d="m0 0 1 2-3 21-6 24h-2l-1 7-7 19h-2l-2 7h-2l3-10 9-27 6-24 2-10 3-8z" fill="#E9793E"/>
<path transform="translate(45,905)" d="m0 0 7 6 5 5 5 2 8 1 39 2 4 2-3 2-15 1-25-3-8-1-8-3-2-1v-3l-4-2-3-5z" fill="#2E303A"/>
<path transform="translate(1222,1156)" d="m0 0h5l-6 8-9 10-15 16-6 7-3-1 14-19 10-18 1 3 4-1z" fill="#C54927"/>
<path transform="translate(1549,888)" d="m0 0 6 1 5 5 1 7-6 9-5 4-4-1 3-6-2-10-3-7z" fill="#FEBE68"/>
<path transform="translate(61,882)" d="m0 0h25l3 1h7l3 2-5 1-1 2h-13l-1 2h-8-2-12l-5-2-1-4 5-1z" fill="#30313A"/>
<path transform="translate(1103,1116)" d="m0 0v3l-4 8-8 10h-2l-2 4-7 8h-2l-2 4-13 12-8 7-11 9-9 8-2-1 13-12 8-7 28-28 7-8 10-12z" fill="#E8EECB"/>
<path transform="translate(382,759)" d="m0 0 7 1v3l3 1 1 9-25 1-4-3 2-4 3-1 6 1 5-7z" fill="#51BFED"/>
<path transform="translate(1352,816)" d="m0 0 2 1v14l-1 19v8l-1 14v15h-2l-1-7 1-25-1-3 1-6v-6l-1 5-5-2v-6h2l1-4-1-7 4-1v-6z" fill="#F17333"/>
<path transform="translate(830,727)" d="m0 0 10 2 5 4h7l-4 4-4 1-1 3-6 3-5-1v-2l-5-1-2-2 1-5z" fill="#F2F0D6"/>
<path transform="translate(344,592)" d="m0 0 2 3-1 6h-2l-3 11-2 3-2 8-6 7-3 3h-2l-1 3-1-3 4-16h2l1-4 4-1 7-15z" fill="#51BBED"/>
<path transform="translate(300,451)" d="m0 0 7 4 8 9 4 9v16l-4 8-8 3-2-1-1-10 1-4v2h2l2 3 6-2v-18l-8-8-5-8-2-1z" fill="#62C2F8"/>
<path transform="translate(329,757)" d="m0 0 2 2 1 5h1v9l-1 3v7l4 13v10 4l2 5 2 10v8l-3 1-3-15-1-7-2-12 2-5-3-4-1-7z" fill="#30313A"/>
<path transform="translate(1010,897)" d="m0 0 1 2-5 8-1 8-1 5-6 2-3 4-1 7-9 5h-2l2-5 8-14 12-18h2v-2z" fill="#71D2F4"/>
<path transform="translate(1018,492)" d="m0 0 9 1 9 5 8 7-1 4-10-1-8-4-7-7z" fill="#FFC16A"/>
<path transform="translate(1217,680)" d="m0 0 3 3 7 14 10 24 5 15-1 4-4-7-4-8-6-16-7-14-3-12z" fill="#FBCF7E"/>
<path transform="translate(250,1154)" d="m0 0h17l10 1 2 2h-26l-5 2-1 7h-2l-1 5h-3l-1 3-3-3-1-3v-9l4-4z" fill="#419EE4"/>
<path transform="translate(955,709)" d="m0 0 4 2 2 4 1 11-8 6-8-1-6-4v-1l8-2 4-2 2-11z" fill="#F2EFD4"/>
<path transform="translate(356,555)" d="m0 0 1 2-4 12-4 10-4 8-4 13-7 13-4 1-2 3 1-7 5-10 3-4 2-5 4-8 5-11 4-10z" fill="#64C4FA"/>
<path transform="translate(968,555)" d="m0 0 10 2 14 5 9 3 14 8 3 4v2l-6-1-16-9-21-8-1-3-6-1z" fill="#E4772F"/>
<path transform="translate(824,737)" d="m0 0 8 4v2l7-1h3l-9 9-7 11h-3l-1-16z" fill="#FADF99"/>
<path transform="translate(1130,471)" d="m0 0 6 4 13 10 14 12 32 32v2l-4-2-9-8-5-5-5-6-7-6v-2l-4-2-1-4-4-2-5-4-8-4v-2h-2v-2l-4-2-4-4v-2l-3-1z" fill="#AD2023"/>
<path transform="translate(1245,419)" d="m0 0 4 2 8 11v11l-1 1h-8l-3-2v-2l-4-1-2-4 9-1v-6z" fill="#F46539"/>
<path transform="translate(1333,450)" d="m0 0h3v2h-2v2l-6 3-4 6h-2l-2 6-3 5v13l2 7-1 3-3-1-3-7v-14l4-10 9-10z" fill="#EB5C3A"/>
<path transform="translate(875,880)" d="m0 0 2 1-4 5h-2l-2 5-7 8-10 8-8 7h-2v2l-3 1 1-4h-3l1-2h2v-2l12-9 5-5 12-9 5-5z" fill="#BA2A27"/>
<path transform="translate(975,733)" d="m0 0 3 4v7l-3 7-3 5-1 8-2 4-1 4-2 4h-2l-1 4h-1v-16l4-4 1-7 2-5 3-1 3-7z" fill="#E93C31"/>
<path transform="translate(684,1067)" d="m0 0 23 3 11 1 41 1v1l-19 2h-27l-20-3-7-2v-2z" fill="#60C2F1"/>
<path transform="translate(378,588)" d="m0 0 1 3-1 8-9 29-1 4h-3l-1-4 3-13 3-9 4-13 2-4z" fill="#2F303A"/>
<path transform="translate(950,805)" d="m0 0 1 2-6 11-12 14-8 9-4 3h-2l-1 3-17 13-10 9-3 3-8 7h-3l8-8 8-7 12-11h2v-2l8-7 13-10 7-7 9-12z" fill="#CF292B"/>
<path transform="translate(799,730)" d="m0 0 4 1 4 5 7 1 6-2 1 6h2v21l2 1-3 3-3-13-11-13-9-9z" fill="#FEC069"/>
<path transform="translate(452,1254)" d="m0 0 4 1 5 4 2 3v6l-3 3-7-1-12-6 2-3h8l1-5z" fill="#4EA8EB"/>
<path transform="translate(1e3 304)" d="m0 0 9 2 5 3v3l-7 3h-15l-15-2-4-2h16l11-4z" fill="#4FBAEC"/>
<path transform="translate(1302,1034)" d="m0 0 2 1v6l-7 13h-2l-1-3-5 9h-4l-1-4 5-5 1-5 1-7 4 2 5-5z" fill="#F76B3B"/>
<path transform="translate(1473,728)" d="m0 0h10l-4 2-3 2-5 2h-19l-13-1-6-2 1-2z" fill="#EF7232"/>
<path transform="translate(364,633)" d="m0 0 2 1-1 10-3 17-3 23-2 4h-2l-1-9 2-4h1v-16l2-7v-5l3-5v-7z" fill="#2E303A"/>
<path transform="translate(418,434)" d="m0 0h2v8l-1-2-6 2v2l-3 3-6 8h-2l-2 5-9 10-5 6-2-1 2-5 7-9h2l2-4 9-11 6-7 1-2z" fill="#50BEE4"/>
<path transform="translate(416,440)" d="m0 0h3v6l-9 18h-7l2-8 3-5 3-7h2v-2z" fill="#84E1F8"/>
<path transform="translate(1059,709)" d="m0 0 1 2 4 2 5 4 8 12 5 13 1 6-4-4-12-19-8-13z" fill="#F2D17E"/>
<path transform="translate(958,307)" d="m0 0 9 1 9 2v2l19 2h16l6-2v-3l3 1 1 3-3 5-23-1h-7l-15-3-9-3-6-3z" fill="#44A4E6"/>
<path transform="translate(1036,838)" d="m0 0h2l1 4-1 32-2 7-3 1v3l-5 2 3-14 2-4 2-12z" fill="#51BDED"/>
<path transform="translate(1138,335)" d="m0 0 7 1 9 5-2 1-10-5 3 3 5 3 1 4-1 2h-2v2h-2l2 4-4-2-5-4-3-5v-6z" fill="#D72C2C"/>
<path transform="translate(1025,581)" d="m0 0h7l3 1v2l4 2 7 6v4l-4 3-7-5v-2l-5-2v-2l-5-2-3-3z" fill="#D56C29"/>
<path transform="translate(229,529)" d="m0 0h8l4 2-14 1-7 3-6 4-4 4-5 14-1 14-4-4v-7l3-13 6-8 8-6 6-3z" fill="#2F303A"/>
<path transform="translate(340,386)" d="m0 0 4 1 5 3 1 3h2v2l2 1-4-1-5-3-5-1-6 2-5 5-2 4v10l1 5-4-2-2-7 1-3-1-6 3-5 11-7z" fill="#2E303A"/>
<path transform="translate(127,730)" d="m0 0h8l8 2-2 2h-10l-6 6v16h-2l-4-11v-7l3-5z" fill="#85E1F8"/>
<path transform="translate(1313,985)" d="m0 0 4 1-1 8 1 4-3 9-2-2-2 1-2-5-3-1-1-3 3-11 6 1z" fill="#F17333"/>
<path transform="translate(393,491)" d="m0 0 1 2-8 16-10 19-5 10-2 1-1 3-5 2 2-6 3-6 7-11 5-9h2l1-4 1-3h2l2-6z" fill="#56B7F1"/>
<path transform="translate(722,600)" d="m0 0h2l-1 4-13 10-13 12-3 3h-3l2-5 11-12h2v-2l5-3h2v-2z" fill="#E57A2E"/>
<path transform="translate(1285,1032)" d="m0 0 1 4-1 5 1 7-2 3-6-3v2h-3v2l-3 1-1-2 5-13 2-4h4 3z" fill="#FA6B3B"/>
<path transform="translate(775,529)" d="m0 0m-4 1h4l-1 4-3 2h-3v2h-2v2l-15 7-8 1-2-2 15-8 14-7z" fill="#D8712B"/>
<path transform="translate(861,598)" d="m0 0h11l19 1v1l-33 1-6 3-1 2h-2l-1 4h-11l3-5 4-4 5-2z" fill="#D9722B"/>
<path transform="translate(282,466)" d="m0 0h7l5 3 3 3-1 3h-2l-1 3-7 2-3-1-3-5 1-5z" fill="#45A5E6"/>
<path transform="translate(1240,354)" d="m0 0h5v6l1 2 3 1v2l4 2 5 10-1 2-5-3-8-8-6-8 1-5z" fill="#B42A26"/>
<path transform="translate(142,890)" d="m0 0h24v1l-6 1-17 1h-73v-1z" fill="#449BE5"/>
<path transform="translate(406,411)" d="m0 0 2 2 2-1 2 1v-2l7 1v3l-9 5-3 3-6 2-1 2h-4l1-6 7-8h2z" fill="#AEE99F"/>
<path transform="translate(227,817)" d="m0 0 2 1 1 3 1-2h2l1 9-3 9-5 5-4 3-5 1-1-2 8-7 3-6z" fill="#2F303A"/>
<path transform="translate(1420,628)" d="m0 0h9l3 1 1 4-7 4-16 1v-3l6-5z" fill="#F54636"/>
<path transform="translate(1331,1172)" d="m0 0 6 4 5 1-4 3h-2v2l-13 8-2-1 1-5 7-10h2z" fill="#E56B32"/>
<path transform="translate(1540,890)" d="m0 0 5 1 3 6 2 10-3 6 1 2-9 1v-2h2v-3l2-1v-7l-3-10z" fill="#FEAF58"/>
<path transform="translate(990,1259)" d="m0 0h6v3l-9 4-18 9h-4l2-4 18-10z" fill="#FCDE98"/>
<path transform="translate(1226,1146)" d="m0 0h2l1 2 3 2-5 6-7 2-4 5-4-1 2-7 4-6 1 2 5-3h2z" fill="#D36929"/>
<path transform="translate(1061,427)" d="m0 0 6 2 20 11 16 10 15 11-3 1-8-6-15-10-14-7-9-4-5-5-3-1z" fill="#A81F22"/>
<path transform="translate(1256,1087)" d="m0 0 1 2-6 12-3 7-1 7 1 3 10-2-2 5h-3l-5 2-3-1-1-9 4-12v-3h-2l2-5 2-3 3 2 2-4z" fill="#D76F2A"/>
<path transform="translate(460,859)" d="m0 0 3 3 5 14v2l3 3 5 13-1 3-8-11-2-7-3-6-3-10-1-3z" fill="#2F303A"/>
<path transform="translate(41,828)" d="m0 0h13l4 2v4l-9 1v2h-7l-4-2-2-4z" fill="#78DBFB"/>
<path transform="translate(597,1034)" d="m0 0 5 2 19 10 19 8-2 2-9-2-14-7-13-7-5-4z" fill="#68CBF4"/>
<path transform="translate(1360,491)" d="m0 0 4 2-1 5h-2l-1 3h-2l-2 4-3 1-3-1-1-7 4-4z" fill="#DD2C2E"/>
<path transform="translate(835,511)" d="m0 0h7l-3 1v2l-19 5-11 2h-10l2-2 16-4z" fill="#D3592A"/>
<path transform="translate(193,624)" d="m0 0 2 2-5 5-7 8-3 6-3 9h-1v-11l4-9 1-2h2v-2z" fill="#2F303A"/>
<path transform="translate(1027,794)" d="m0 0 2 1 3 10 1 10-2 1-4 8h-1v-21z" fill="#78DAF8"/>
<path transform="translate(1237,1115)" d="m0 0h3l1 3-4 6-2 9-4 8-3 1v-4l-3 2 2-5 8-16z" fill="#E0732F"/>
<path transform="translate(300,451)" d="m0 0 7 4 8 9 4 9v16l-2 2-2-21-8-8-5-8-2-1z" fill="#49ACE8"/>
<path transform="translate(968,725)" d="m0 0h3l2 5-3 7-7 2v3l-5-2-4-4 7-2 5-5h2z" fill="#FEBF68"/>
<path transform="translate(138,720)" d="m0 0 11 1-1 3 3 1-3 3-9 1-1-2-11-1 3-3 5-2z" fill="#30313A"/>
<path transform="translate(1312,951)" d="m0 0h1v8l-7 26-8 25h-2l4-16 6-19 4-18v-2h2z" fill="#D2552A"/>
<path transform="translate(1273,1029)" d="m0 0h1v8l-5 15-4 11h-2l-2 7h-2l3-10 10-29z" fill="#F89E4D"/>
<path transform="translate(266,1108)" d="m0 0 5 2 7 6v2l5 2 5 5v1h-6v-2l-5-2-2-1v-2h-3v-2h-2l-4-6z" fill="#2F313B"/>
<path transform="translate(59,917)" d="m0 0h25l13 2 18 1v2l-45-2-11-2z" fill="#5DBBF0"/>
<path transform="translate(464,893)" d="m0 0 5 3 1 2 3 1 1 8h2l3 11 1 3h2l1 3h-3l-11-19-3-4-2-5z" fill="#8BE8FD"/>
<path transform="translate(313,1220)" d="m0 0h3l1 5 3 2v2h2v2l3 1v2h3l2 5h-6l-6-4-5-9z" fill="#81DBF4"/>
<path transform="translate(1384,533)" d="m0 0h9v1l-9 3-13 8-6 5-3-1 7-8 8-6z" fill="#FBAE59"/>
<path transform="translate(1202,465)" d="m0 0 4 1 7 8 2 4h2v2h2l5 8-1 3-6-6v-2h-2l-5-6v-2l-4-2-6-7z" fill="#3C2D36"/>
<path transform="translate(1274,1165)" d="m0 0h3l-2 5-9 10-8 6-16 16v-3l26-26z" fill="#C0E8A6"/>
<path transform="translate(200,804)" d="m0 0 13 1h7l6 3-3 1v2h-13l-12-6z" fill="#2F303A"/>
<path transform="translate(1320,896)" d="m0 0 1 2-4 36-2 9h-1v-10l2-20v-3h2v-11z" fill="#D1312B"/>
<path transform="translate(837,591)" d="m0 0h12v2h9l5 2v1l-14-1h-11l-10 5-2 3h-2l2-6 8-5z" fill="#F28244"/>
<path transform="translate(1195,369)" d="m0 0 4 1 4 3 7 6 10 9 11 10 1 6-5-5-9-10-8-7-13-10z" fill="#352F38"/>
<path transform="translate(790,726)" d="m0 0 5 2 6 4 12 12 7 9 3 12 1 3-3 1-3-12-2-6h-2l-6-9-9-9-5-2-1-2-3-1z" fill="#FB6A5E"/>
<path transform="translate(700,731)" d="m0 0h2l-2 4-4 7v2h-2l-1 5-1 2h-3l-2 7-4 3 1-5 4-10 3-5h2l2-4z" fill="#FC6458"/>
<path transform="translate(1354,773)" d="m0 0 2 1v39l-2-3-1-4v-31z" fill="#F07F42"/>
<path transform="translate(771,571)" d="m0 0 1 3-19 10-9 6-3-1 3-3 13-9z" fill="#E4782E"/>
<path transform="translate(818,1224)" d="m0 0h8l-3 2-10 2-1 1-23 2h-11l3-2z" fill="#2B4040"/>
<path transform="translate(1020,851)" d="m0 0h1v8l-6 30-6 10h-2v2l-2-1 7-14 4-13z" fill="#47AEE3"/>
<path transform="translate(1433,975)" d="m0 0h2v8l-6 8-8 6-3-1 4-4 4-3 5-12z" fill="#F28343"/>
<path transform="translate(678,773)" d="m0 0h1v12l-2 1-3-2-9-1-7-2h-5v-6l4 1 16 5 5 3z" fill="#FC755E"/>
<path transform="translate(230,969)" d="m0 0h2l3 9-2 8-5 4-5 1 6-11v-9z" fill="#2F323D"/>
<path transform="translate(268,771)" d="m0 0 2 2h5v-2l5 2 8 3 8 1 3-1-2 4-1 1h-7l-9-3-5-3h-6z" fill="#51BFED"/>
<path transform="translate(814,727)" d="m0 0 4 5 1 4-5 2-7-1-3-4 3-1 2-3h5z" fill="#FBD890"/>
<path transform="translate(292,655)" d="m0 0 2 2-1 4-3 8-3 14-4 12-3 1 2-10z" fill="#55B1E8"/>
<path transform="translate(388,559)" d="m0 0 4 1-3 9-5 12h-2v2l-3-1 2-8 5-8z" fill="#2F303A"/>
<path transform="translate(1315,474)" d="m0 0h1l1 13 2 7-1 3-3-1-3-7v-14z" fill="#F65A44"/>
<path transform="translate(828,919)" d="m0 0 1 2h2l-2 6-8 8h-1l-1-10 8-5z" fill="#DB2B2D"/>
<path transform="translate(1509,832)" d="m0 0 1 2 2-1 19 1h6l2 1-1 2h-16l-21-2 4-2z" fill="#FB6B3C"/>
<path transform="translate(985,762)" d="m0 0h1l1 6v16l-16 5h-3v2h-3l-1 2v-2l-5 1-2 1 2-4 4-2 20-4 2-1z" fill="#AC2125"/>
<path transform="translate(684,1187)" d="m0 0h18l14 1-1 2-8 2h-8l-9-3-6-1z" fill="#BCEA90"/>
<path transform="translate(787,606)" d="m0 0 2 1-6 5-5 2-1 5-10 4h-6l4-4 14-8z" fill="#FCBA65"/>
<path transform="translate(229,895)" d="m0 0 3 1 2 8v7l-2 5-3 1-1-18z" fill="#30313A"/>
<path transform="translate(1412,728)" d="m0 0h14l1 2h-10l-10 5-3 3-2 7h-2v-8l4-5 4-3z" fill="#EF8042"/>
<path transform="translate(1017,309)" d="m0 0 3 1 1 3-3 5-17-1-11-2v-1h21l6-2z" fill="#50A6ED"/>
<path transform="translate(78,807)" d="m0 0h41l3 1 6 1v2h-12l-13-2h-24z" fill="#2B303A"/>
<path transform="translate(230,649)" d="m0 0h1v7l-2 5h-2v2l-5 2-1 3h-2v2l-2-1 3-5 4-6 3-7z" fill="#2F303A"/>
<path transform="translate(401,413)" d="m0 0v3l-4 8-1 3h4l2-4h5l-2 2-9 6-3 3-2-1-1-4 4-7 4-5 1-3z" fill="#68BBBB"/>
<path transform="translate(1280,1228)" d="m0 0 2 4 2 1v2l5 1 6 2 8 1v3h-11l-11-6-2-2v-5z" fill="#FBB561"/>
<path transform="translate(1095,694)" d="m0 0 4 4 12 19 9 16 4 8-1 2-11-20-9-14-8-13z" fill="#BEEA92"/>
<path transform="translate(183,671)" d="m0 0 9 2 16 1-1 4-10 1-4-1-10-6z" fill="#30313A"/>
<path transform="translate(959,765)" d="m0 0 2 2v17h-3l-3 1-1-2 3-15z" fill="#FB6B3C"/>
<path transform="translate(799,730)" d="m0 0 4 1 4 5 7 1 6-2-1 8-5 1-5-3-10-10z" fill="#FEC976"/>
<path transform="translate(1054,606)" d="m0 0h4v2l3 1v2l5 2 9 7 1 3 4 2-1 3-8-7-7-6-7-4-3-3z" fill="#E87B2F"/>
<path transform="translate(1270,1076)" d="m0 0h2l1 6-1 7 2 1h-3l-4-4-8-1v-2l8-4 3-1z" fill="#D7702A"/>
<path transform="translate(950,805)" d="m0 0 1 2-6 11-12 14-8 9-4 3-2-1 5-6 8-7 11-13 6-11z" fill="#CA292A"/>
<path transform="translate(1055,707)" d="m0 0h2l14 23 6 9-1 3-7-9-9-16-5-8z" fill="#313C3E"/>
<path transform="translate(819,511)" d="m0 0 7 1v2l-19 4-7 1v-3l16-4z" fill="#FCD186"/>
<path transform="translate(571,1017)" d="m0 0 5 2 18 12 3 3-7-1-15-10z" fill="#60C1F1"/>
<path transform="translate(1550,889)" d="m0 0h5l5 5 1 7-6 9-2-1 3-6-1-8z" fill="#FCC97A"/>
<path transform="translate(198,721)" d="m0 0 9 1 9 3 2 2-1 3-9-4-17 1 4-3 4-1z" fill="#2B303A"/>
<path transform="translate(1351,847)" d="m0 0 2 2v9l-1 14v15h-2l-1-7 1-25-1-3z" fill="#F17433"/>
<path transform="translate(516,677)" d="m0 0h2l-2 12-4 19-1 8h-1v-14l2-11z" fill="#C6282A"/>
<path transform="translate(335,833)" d="m0 0h1l4 19 6 21 1 9-2-4-6-18-4-20z" fill="#409AE3"/>
<path transform="translate(929,831)" d="m0 0 2 1-9 8-8 6-6 5 2-5 1-3h2l2-4h2v-2l9-4z" fill="#EC3C32"/>
<path transform="translate(827,398)" d="m0 0h5l6 2-9 3h-2l-1 2-2-1-1 2-5-1 1-5z" fill="#8D181F"/>
<path transform="translate(1353,883)" d="m0 0h1l-1 11-4 21h-1l-1-7 2-10v-3-7l3-1z" fill="#EB773A"/>
<path transform="translate(304,622)" d="m0 0h2l-1 7-2 9-5 5-4 11-1-3 7-20z" fill="#5FB6D9"/>
<path transform="translate(1054,1265)" d="m0 0 1 3-10 6-14 8h-2l1-3 7-4 7-5z" fill="#E3772D"/>
<path transform="translate(407,1211)" d="m0 0 4 1 10 11 8 4 3 4v2l-4-1-14-12-3-3v-3l-4-2z" fill="#2E303A"/>
<path transform="translate(919,844)" d="m0 0 2 1-2 3h-2l-1 3-4 1v2l-5 3-3 4h-3l-2 4-8 6v-3l7-7 20-15z" fill="#AB2124"/>
<path transform="translate(813,753)" d="m0 0h4l3 7v10h-3v-2h-2l-1-8z" fill="#EC3D32"/>
<path transform="translate(821,552)" d="m0 0 3 1-18 7-7 3h-6l5-4 9-4z" fill="#E3762D"/>
<path transform="translate(269,736)" d="m0 0h3v9l-5 17-2-3v-5l3-5-1-3 1-8z" fill="#2F303A"/>
<path transform="translate(533,635)" d="m0 0 1 3-5 14-5 9-1-2 2-9 5-12z" fill="#BC2628"/>
<path transform="translate(318,586)" d="m0 0 1 2-3 7-3 8-3 3v-3h-2l4-12z" fill="#2D333E"/>
<path transform="translate(654,782)" d="m0 0 7 1 3 1 1 2h3v2l5 1 5 5v2l-5-2-10-6-10-4z" fill="#EC3C32"/>
<path transform="translate(972,730)" d="m0 0 3 3 1 5-5 1v2l-5 2-1-1-3 3-4-5 5 2v-3l4-2h3z" fill="#FB6B5E"/>
<path transform="translate(1344,719)" d="m0 0h2l4 17 2 10v5h-2l-3-14v-5l-4-1 1-3z" fill="#E9763C"/>
<path transform="translate(966,719)" d="m0 0 4 4v2h-2v4h-2l-2 4-4 3h-7l-1-2 6-1 5-5 2-1v-7z" fill="#F9D890"/>
<path transform="translate(738,548)" d="m0 0 2 1-4 5-12 6-5 1v-2l10-7z" fill="#D7712A"/>
<path transform="translate(414,398)" d="m0 0 2 2-2 5-8 8-6 5 2-6 3-5 2-1 2-4z" fill="#7BD1DE"/>
<path transform="translate(221,593)" d="m0 0 17 1 2 2-3 2-7 1-9-3z" fill="#2F303A"/>
<path transform="translate(1130,471)" d="m0 0 6 4 13 10 3 3-4 1-5-3v-2h-2v-2l-4-2-4-4v-2l-3-1z" fill="#AC2023"/>
<path transform="translate(1248,764)" d="m0 0h2l6 21 1 6-3-1-4-12z" fill="#FCCD7A"/>
<path transform="translate(1099,650)" d="m0 0 6 4 8 11 6 9-1 3-12-16-7-9z" fill="#EA6F31"/>
<path transform="translate(196,993)" d="m0 0 4 1 7 2 10 1-2 3-11 1-8-7z" fill="#2F303A"/>
<path transform="translate(267,558)" d="m0 0 2 1 1 5-2 10-3 7-4 1v2l-4 1 6-10h2l2-5z" fill="#2F303A"/>
<path transform="translate(418,434)" d="m0 0h2v8l-1-2-6 2v2l-5 3-5 6-2-1 9-10 3-5z" fill="#49ACE7"/>
<path transform="translate(1291,390)" d="m0 0h7v3l-8 2v2l-5 5-3 1v-4h2l2-5 3-1v-2z" fill="#F75F42"/>
<path transform="translate(506,327)" d="m0 0 6 1 3 3-1 3-11-2-11 2v-2z" fill="#8FCEA4"/>
<path transform="translate(1121,550)" d="m0 0 4 2 7 6v2h2l4 5v2l-5-2-7-7-4-3z" fill="#FBC976"/>
<path transform="translate(1325,1180)" d="m0 0 11 1-5 4-8 5-2-1 1-5z" fill="#BD4126"/>
<path transform="translate(849,735)" d="m0 0 2 1-4 2-1 3h-2l-1 3-5 4-3 5h-2l-2 5-3 4h-2l2-5 7-9 11-11z" fill="#FB6D58"/>
<path transform="translate(250,1180)" d="m0 0h38l4 2h-7l-11 1-9 1-4-2-11-1z" fill="#2B303A"/>
<path transform="translate(723,1320)" d="m0 0h12l6 2 1 2-12 1-7-1v-3z" fill="#DB772E"/>
<path transform="translate(212,1108)" d="m0 0 6 4 3 4-9-1-9-4 4-1z" fill="#A1C377"/>
<path transform="translate(911,901)" d="m0 0 2 1-27 27-2-1 14-15 8-7z" fill="#8D181F"/>
<path transform="translate(150,725)" d="m0 0 13 1 1 1 10 1v1h-33v-1l9-1z" fill="#2B303A"/>
<path transform="translate(613,696)" d="m0 0 2 1-2 5 1 2h-2v2l2 1-3 3h-2l-1 5h-2l1-8 4-10z" fill="#F07333"/>
<path transform="translate(262,455)" d="m0 0v3l-7 10-3 9-2-4 3-9 4-6z" fill="#2F303A"/>
<path transform="translate(1387,1023)" d="m0 0 8 2 4 2v3l-15-2v-4z" fill="#F3C876"/>
<path transform="translate(822,746)" d="m0 0 2 4 5 3 2 1-5 8h-3z" fill="#FDD78E"/>
<path transform="translate(393,491)" d="m0 0 1 2-8 16-7 13-1-4h2l2-9 2-4h2l2-6z" fill="#419AE3"/>
<path transform="translate(442,369)" d="m0 0 2 1-2 1zm-1 2m-1 1m-1 1m-2 1 2 1-21 21-1-2 7-8z" fill="#6DC1DE"/>
<path transform="translate(814,982)" d="m0 0h10l2 1-2 4-4 3-6-5z" fill="#9E1C20"/>
<path transform="translate(1327,839)" d="m0 0h1l1 26-1 7-3 7-1-2 2-16z" fill="#FB6B3C"/>
<path transform="translate(1077,743)" d="m0 0 3 1 8 14 3 7-1 4-5-8-6-14z" fill="#2C3F3F"/>
<path transform="translate(903,280)" d="m0 0 16 2 7 3-4 2-18-4z" fill="#77DAFA"/>
<path transform="translate(392,423)" d="m0 0v3l-1 4 2 3 3-3 2 1-8 7-3 1-1-7z" fill="#2F7B78"/>
<path transform="translate(1238,408)" d="m0 0 4 2 8 8 5 8-1 3-8-10-8-9z" fill="#352F38"/>
<path transform="translate(1138,335)" d="m0 0 7 1 9 5-2 1-10-5v2h-4l3 9 2 3-4-2-3-5v-6z" fill="#B23724"/>
<path transform="translate(290,1164)" d="m0 0 7 4 4 5v6l-4-1-6-11z" fill="#3275D9"/>
<path transform="translate(494,1104)" d="m0 0 9 6 10 8-4 1-11-8-4-3z" fill="#42A0E3"/>
<path transform="translate(1279,562)" d="m0 0 3 4 5 9 6 9v2l-3-1-3-5-3-3v-3h-2l-3-8z" fill="#EE6237"/>
<path transform="translate(607,764)" d="m0 0 2 4-1 30h-1l-1-23-1-5z" fill="#E2772D"/>
<path transform="translate(1089,443)" d="m0 0 5 1 17 12 7 5-3 1-8-6-15-10z" fill="#AC2024"/>
<path transform="translate(748,267)" d="m0 0h13v4l-1 2-10-1v-2l-4-1z" fill="#2F303A"/>
<path transform="translate(619,1046)" d="m0 0 9 3 12 5-2 2-9-2-6-3z" fill="#61C2F2"/>
<path transform="translate(948,552)" d="m0 0h10l10 3v2l6 1v2l-9-2-17-5z" fill="#D76130"/>
<path transform="translate(313,1161)" d="m0 0 4 2 11 10 4 2-1 3-5-3v-2l-7-2v-2h-2v-3h-2z" fill="#2E303A"/>
<path transform="translate(1137,1063)" d="m0 0h2l-2 6-6 11-7 10-2-1 13-22z" fill="#E6EBC6"/>
<path transform="translate(1317,780)" d="m0 0 3 1 2 20-1 2-4-12z" fill="#AB2323"/>
<path transform="translate(1205,1179)" d="m0 0v3l-11 11-3 4-3-1 9-12 5-2z" fill="#992320"/>
<path transform="translate(116,754)" d="m0 0 4 2 3 2v2l6 2 8 1-4 2-8-2-3-1-2 1-4-4v-4z" fill="#30313A"/>
<path transform="translate(1104,535)" d="m0 0 4 2 13 11h-3l-6-3-9-8z" fill="#FBC976"/>
<path transform="translate(1226,1146)" d="m0 0h2l1 2 3 2-7 2-7 4h-2l1-5 2-2v2l5-3h2z" fill="#D9732D"/>
<path transform="translate(1295,703)" d="m0 0 3 3 8 18-1 3-6-9-4-10z" fill="#B42327"/>
<path transform="translate(621,674)" d="m0 0 1 2-12 24-1-4 8-16z" fill="#D1582A"/>
<path transform="translate(352,399)" d="m0 0 4 2 1 9-2 4-3-1z" fill="#4BA1EA"/>
<path transform="translate(592,836)" d="m0 0 3 4 4 8 4 4v3h2l1 6-3-1-11-21z" fill="#D55A2D"/>
<path transform="translate(300,639)" d="m0 0 2 2-4 11h-2l-1 5h-2l1-5 4-11z" fill="#64C3F8"/>
<path transform="translate(598,835)" d="m0 0h7l3 11-1 2-3-4-2-4-3-1-1 3z" fill="#D7702A"/>
<path transform="translate(1044,316)" d="m0 0 7 1 6 3 2 4-2 1-7-1v-5l-4-1z" fill="#2F303A"/>
<path transform="translate(428,1256)" d="m0 0 5 2 9 6 11 5-3 1-10-3-6-5h-2l-4-5z" fill="#2B303A"/>
<path transform="translate(1294,1144)" d="m0 0 6 2 6 4 7 3v5h-3l-2-4-9-5-2-2-4-2z" fill="#80DAED"/>
<path transform="translate(225,816)" d="m0 0 2 4 1 4v7l-3 6-3 2 1-4 1-2z" fill="#5DBBED"/>
<path transform="translate(1212,1230)" d="m0 0 1 3-11 11-5 2 6-8z" fill="#B1E793"/>
<path transform="translate(1248,1097)" d="m0 0 1 4-2 1-2 6-3 3-1 2h-2l3-9 4-6z" fill="#E07132"/>
<path transform="translate(684,1067)" d="m0 0 14 2v2h6l1 2h-8l-11-3v-2z" fill="#67C9F1"/>
<path transform="translate(1290,1046)" d="m0 0h2l-1 10-2 4h-4l-1-4 5-5z" fill="#F54636"/>
<path transform="translate(226,982)" d="m0 0 1 4-7 8h-5l3-5h2v-2l5-3z" fill="#89E6FA"/>
<path transform="translate(875,880)" d="m0 0 2 1-4 5h-2l-2 5-7 8v-3l3-7 7-5z" fill="#AF2124"/>
<path transform="translate(320,583)" d="m0 0 2 4v4l-3 5-4 4-1-3 3-5z" fill="#71CCE9"/>
<path transform="translate(868,505)" d="m0 0h28l-2 2-20 1-6-2z" fill="#E97234"/>
<path transform="translate(1202,465)" d="m0 0 4 1 7 8 2 4-5-4h-3l-7-7z" fill="#402C35"/>
<path transform="translate(657,1061)" d="m0 0 8 1 18 4-3 2-7-1-9-2v-2h-7z" fill="#5BBDEF"/>
<path transform="translate(414,968)" d="m0 0h2l10 16 1 4h-2l-6-10-5-7z" fill="#2E303A"/>
<path transform="translate(1111,869)" d="m0 0 3 2v15l-2-2-2-3-1-4z" fill="#69BDB6"/>
<path transform="translate(29,820)" d="m0 0 3 3-2 1 1 13-3-1-1-2v-11z" fill="#30313A"/>
<path transform="translate(1545,813)" d="m0 0h16l4 2-3 1 2 3-7-1-3-1v-2l-9-1z" fill="#E0622F"/>
<path transform="translate(1224,491)" d="m0 0 4 1 8 7v2h2l-2 4-9-10v-2l-3-1z" fill="#3D2D36"/>
<path transform="translate(927,279)" d="m0 0h6l15 4 7 2-2 2-5-1-10-3-11-2z" fill="#30313A"/>
<path transform="translate(1431,984)" d="m0 0h2l-2 5-8 7-4 1-1-2 9-7z" fill="#F69D4D"/>
<path transform="translate(1321,796)" d="m0 0 2 4 1 5v12l-2-1-1-7-2-7 2-1z" fill="#BA2A27"/>
<path transform="translate(118,733)" d="m0 0 2 1-2 11 2 9-3-3-2-4v-8z" fill="#30313A"/>
<path transform="translate(1233,350)" d="m0 0 12 2v2l-6 2-1 3-4-5-2-1z" fill="#951A1F"/>
<path transform="translate(1306,995)" d="m0 0 3 3v2l3-1 2 1 2-4 1 2-3 9-2-2-2 1-2-5-3-1z" fill="#FA6B3B"/>
<path transform="translate(346,991)" d="m0 0 4 1 4 6 1 7h-2l-3-5v-2h-2z" fill="#61C2F8"/>
<path transform="translate(1026,982)" d="m0 0 2 1-1 5-4 5-2 4-1-3 2-7v-3z" fill="#2F303A"/>
<path transform="translate(633,943)" d="m0 0 6 2 5 6 6 3 3 3-1 2-11-8-8-7z" fill="#30313A"/>
<path transform="translate(395,930)" d="m0 0 3 3 10 20-1 3-4-7-8-17z" fill="#2E303A"/>
<path transform="translate(1461,904)" d="m0 0h11l1 2h-7l3 4h-3l-9-3v-2z" fill="#F17333"/>
<path transform="translate(849,599)" d="m0 0h7v1l-9 3-4 4-1 3h-5l3-5 4-4z" fill="#DB772E"/>
<path transform="translate(971,531)" d="m0 0 4 1 2-1 7 3v2l-7 1-8-4z" fill="#DB772E"/>
<path transform="translate(1069,512)" d="m0 0 5 1 10 7v2l-9-3z" fill="#FCCC78"/>
<path transform="translate(1256,1087)" d="m0 0 1 2-4 7-5 2h-2l2-5 2-3 3 2 2-4z" fill="#D66B2A"/>
<path transform="translate(1302,895)" d="m0 0 4 2 6 5-2 6-3-3-3-1v-2h2v-3h-2z" fill="#E1462E"/>
<path transform="translate(653,775)" d="m0 0 4 1 9 4-1 2-12-1z" fill="#FB6654"/>
<path transform="translate(208,580)" d="m0 0 4 2 8 7-1 2-5-1v-2h-2v-2l-4-2z" fill="#2E303A"/>
<path transform="translate(316,471)" d="m0 0h2l1 2v16l-2 2z" fill="#49ADE8"/>
<path transform="translate(1338,448)" d="m0 0h13l3 1v3l-4-1h-14l-1-2z" fill="#DD5236"/>
<path transform="translate(665,1315)" d="m0 0 7 1 1 1 9 1v2l4 1-10-1-14-3z" fill="#F89E4C"/>
<path transform="translate(1268,1052)" d="m0 0 2 1-3 9-3 7-1 2h-2l1-6 1-2h2l2-9z" fill="#EF7835"/>
<path transform="translate(353,895)" d="m0 0 3 1 2 7 2 2v6h-2v-2h-2l-3-11z" fill="#30313A"/>
<path transform="translate(862,891)" d="m0 0h2l-1 5-6 7-2-1v-3z" fill="#B72327"/>
<path transform="translate(772,718)" d="m0 0 7 1 13 5 6 3 1 3-5-2-13-6-9-3z" fill="#FDD58A"/>
<path transform="translate(298,447)" d="m0 0 4 2h3l3 1v2l2 1-1 2-5-1-7-4z" fill="#2E303A"/>
<path transform="translate(1333,939)" d="m0 0 2 1v5l-1 2h-3v2l2 1-4 2-1-9 4-2z" fill="#F17333"/>
<path transform="translate(700,731)" d="m0 0h2l-2 4-8 10-4 4v-3l3-5h2l2-4z" fill="#FC8468"/>
<path transform="translate(1164,596)" d="m0 0 6 5 8 11h-3v-2l-4-2-4-6v-2h-2z" fill="#FCCE7F"/>
<path transform="translate(1317,923)" d="m0 0h1l-1 11-2 9h-1v-10l1-8z" fill="#D0372A"/>
<path transform="translate(208,886)" d="m0 0h13v2l4 1-3 2v-2h-11z" fill="#2F303A"/>
<path transform="translate(592,464)" d="m0 0 2 1-12 12v-3l6-7zm-12 13m-1 1m-2 1 2 1-6 5 2-4z" fill="#D5523B"/>
<path transform="translate(186,881)" d="m0 0 9 2v2l-6 2-6-1z" fill="#30313A"/>
<path transform="translate(968,725)" d="m0 0h2l-1 7-4 4-7 1 8-8h2z" fill="#FFCB78"/>
<path transform="translate(940,985)" d="m0 0 2 1-12 12-6 5-2-1 7-7 8-7z" fill="#63BEE6"/>
<path transform="translate(339,836)" d="m0 0h2l3 11h-2l-1 2-2-2z" fill="#2F303A"/>
<path transform="translate(1027,794)" d="m0 0 2 1 3 12-2-1v-2h-3v7h-1z" fill="#4DA6E2"/>
<path transform="translate(514,691)" d="m0 0 1 2-4 23h-1v-14l2-7z" fill="#B82427"/>
<path transform="translate(958,307)" d="m0 0 9 1 9 2-4 2-8-1-6-3z" fill="#48A5E8"/>
<path transform="translate(686,1320)" d="m0 0h9l4 4-11-1-6-1z" fill="#D6682E"/>
<path transform="translate(655,960)" d="m0 0 5 2 12 8 4 5-4-2-16-11z" fill="#30313A"/>
<path transform="translate(920,840)" d="m0 0m-1 1 1 2-2 4-5 4-4-1 8-8z" fill="#D82B2D"/>
<path transform="translate(982,746)" d="m0 0 2 2 3 5v15h-1l-3-15z" fill="#30313A"/>
<path transform="translate(279,688)" d="m0 0 1 3-1 11-3 1-1-6 2-4z" fill="#2F303A"/>
<path transform="translate(253,587)" d="m0 0 3 1-3 5-2 1h-6l1-3z" fill="#2E303A"/>
<path transform="translate(359,399)" d="m0 0 2 1 1 3v9l-5 5v-3h2z" fill="#30313A"/>
<path transform="translate(1123,620)" d="m0 0h2l7 8 3 4-4 1-8-11z" fill="#D76F2A"/>
<path transform="translate(321,415)" d="m0 0 6 5 9 9-4-1-11-9z" fill="#30313A"/>
<path transform="translate(825,1052)" d="m0 0h3v4l-12 4h-2l1-3 7-2z" fill="#2F303A"/>
<path transform="translate(230,1024)" d="m0 0v3l-2 4-1 7-2-4h-2l1-4 3-5z" fill="#2F3E47"/>
<path transform="translate(266,764)" d="m0 0h1v10h-3l-1-1v-8z" fill="#2F303A"/>
<path transform="translate(710,724)" d="m0 0 2 1-2 3h-3l-2 4-7 6 2-4 3-5z" fill="#FC6E58"/>
<path transform="translate(1104,597)" d="m0 0 4 1 5 6-2 3-7-8z" fill="#FCC673"/>
<path transform="translate(788,563)" d="m0 0m-2 1 4 2-13 6-4-1z" fill="#E1742D"/>
<path transform="translate(409,445)" d="m0 0 1 2-6 8-5 3-4 3 2-4 3-4 5-3z" fill="#4EBEE3"/>
<path transform="translate(525,971)" d="m0 0 5 3 3 3v2l4 2 2 3-1 3-6-7v-2h-2l-5-5z" fill="#30313A"/>
<path transform="translate(1313,753)" d="m0 0 1 4h2l1 8v9l-2-3-2-12z" fill="#A72222"/>
<path transform="translate(1288,685)" d="m0 0 3 1 4 13-1 4-6-16z" fill="#B42327"/>
<path transform="translate(318,576)" d="m0 0 1 4-1 7-5 4 1-5z" fill="#2F303A"/>
<path transform="translate(300,451)" d="m0 0 7 4 4 7-2 2-6-8-3-3z" fill="#5AB9F3"/>
<path transform="translate(1285,1032)" d="m0 0 1 4-1 5 1 7-2 3-1-1-1-8z" fill="#F54636"/>
<path transform="translate(1120,677)" d="m0 0 4 4 6 10 1 4-4-4-7-11z" fill="#E8763B"/>
<path transform="translate(1020,665)" d="m0 0 4 2 10 11-1 2-13-13z" fill="#A12B22"/>
<path transform="translate(1257,532)" d="m0 0h2l4 6v2h2l5 8-2 1-6-8-5-7z" fill="#F46652"/>
<path transform="translate(1259,362)" d="m0 0 2 3v9l-2 7-4-2 3-1z" fill="#8D181F"/>
<path transform="translate(1228,1137)" d="m0 0 1 3-3 5h-2v2l-4 1 4-8z" fill="#ED7D40"/>
<path transform="translate(1201,1119)" d="m0 0 1 3-8 13h-2l1-4z" fill="#E7773B"/>
<path transform="translate(1273,1037)" d="m0 0 2 3-3 11-3 1 2-8z" fill="#EF7939"/>
<path transform="translate(1315,1010)" d="m0 0 1 3-5 12h-1v-10l2-3 1 3z" fill="#F98B47"/>
<path transform="translate(1349,835)" d="m0 0 1 3-1 3-1 4-4-2v-6h4z" fill="#F47135"/>
<path transform="translate(608,747)" d="m0 0 1 3 4-3v7l-3 4-3-9z" fill="#ED7A39"/>
<path transform="translate(1105,451)" d="m0 0h5l2 4 3 1 1 3-5-2-6-4z" fill="#FA6659"/>
<path transform="translate(411,1243)" d="m0 0 5 2 12 10h-3l-6-4-8-7z" fill="#2B303A"/>
<path transform="translate(470,1083)" d="m0 0 7 6 3 4h-4l-4-3z" fill="#42A1E5"/>
<path transform="translate(53,921)" d="m0 0 12 2 4 2v1h-7l-9-3z" fill="#30313A"/>
<path transform="translate(361,910)" d="m0 0 2 2 1 7v3l-4-4v-7z" fill="#30313A"/>
<path transform="translate(851,899)" d="m0 0 2 1-11 9h-2v2l-3-1 12-10z" fill="#D42A2C"/>
<path transform="translate(883,617)" d="m0 0 6 1 6 3v2l-6-1-9-3z" fill="#D95F2E"/>
<path transform="translate(1355,451)" d="m0 0 6 2 8 7-1 3-8-8-5-2z" fill="#EE5A3D"/>
<path transform="translate(1080,342)" d="m0 0 7 1 4 3v2h-5l-6-5z" fill="#51B1ED"/>
<path transform="translate(1312,951)" d="m0 0h1v8l-2 8h-2l1-12h2z" fill="#D1462A"/>
<path transform="translate(1465,905)" d="m0 0h6l5 5h-7z" fill="#FB6B3C"/>
<path transform="translate(292,655)" d="m0 0 2 2-1 4-3 8-1 4h-2l3-12z" fill="#53ACE0"/>
<path transform="translate(225,639)" d="m0 0 2 2 1 8-2 6h-1z" fill="#47A4E3"/>
<path transform="translate(1315,467)" d="m0 0h3l2 3-5 5h-2l1-6z" fill="#EA553F"/>
<path transform="translate(418,434)" d="m0 0h2v8l-1-4-8 4 2-5z" fill="#3E94E1"/>
<path transform="translate(711,1320)" d="m0 0h12l2 2-1 1-14-1z" fill="#D7702A"/>
<path transform="translate(225,1032)" d="m0 0h1l2 9v3l-2-1v-2h-2l-1-7h2z" fill="#2E323F"/>
<path transform="translate(1531,897)" d="m0 0 2 1-2 10-1-4-3-1 1-5z" fill="#FB6B3C"/>
<path transform="translate(985,779)" d="m0 0 1 3-3 2-13 2 1-2 7-2 7-1z" fill="#CE292B"/>
<path transform="translate(1261,610)" d="m0 0h7l3 3-4 5v-3h-2v-3z" fill="#FB6142"/>
<path transform="translate(429,594)" d="m0 0h1v7l-1 2h-2v2l-3 1 2-6z" fill="#7FDEFB"/>
<path transform="translate(1151,488)" d="m0 0 4 2 10 9h-3l-2-1v-2l-4-2-5-4z" fill="#B62326"/>
<path transform="translate(462,353)" d="m0 0 2 1-8 7-5 3-2-1 6-4 3-3h2v-2z" fill="#78CFE7"/>
<path transform="translate(1095,694)" d="m0 0 4 4 6 9-1 3-7-10z" fill="#E9D78C"/>
<path transform="translate(284,685)" d="m0 0h1v5l-3 6h-2l2-10z" fill="#54AFEB"/>
<path transform="translate(662,658)" d="m0 0h2l-2 4-5 5v-2l-3-1z" fill="#D9702D"/>
<path transform="translate(318,586)" d="m0 0 1 2-3 7-3 1v-5z" fill="#2B353C"/>
<path transform="translate(945,549)" d="m0 0 12 1 1 2h-14z" fill="#DA6F2E"/>
<path transform="translate(1333,450)" d="m0 0h3v2h-2v2l-3 2h-6l5-4z" fill="#F5643D"/>
<path transform="translate(1291,390)" d="m0 0h7v3l-8 2 1-2-2-2z" fill="#EF593E"/>
<path transform="translate(441,1263)" d="m0 0 12 3 2 1v3l-6-2-8-4z" fill="#54B2E3"/>
<path transform="translate(1213,1155)" d="m0 0 1 2-7 13-2 1 2-7z" fill="#30313A"/>
<path transform="translate(267,1109)" d="m0 0 5 2 6 5 1 3-4-1-4-5z" fill="#2B3741"/>
<path transform="translate(1352,875)" d="m0 0h2v8l-2 4-1-3v-7z" fill="#F38946"/>
<path transform="translate(345,599)" d="m0 0 1 3-3 10-2-3 1-6 1-2h2z" fill="#3A8ADF"/>
<path transform="translate(308,603)" d="m0 0h2l1 5-1 2h-2l-1 2h-2z" fill="#2E303A"/>
<path transform="translate(1138,339)" d="m0 0 4 1v7l-2 1-2-4z" fill="#CE292B"/>
<path transform="translate(813,1260)" d="m0 0h12l-3 2-5 1h-7z" fill="#2E303A"/>
<path transform="translate(464,972)" d="m0 0 4 2 7 10-1 2-10-13z" fill="#6FD3F8"/>
<path transform="translate(283,447)" d="m0 0h5v2l-10 2-3-2z" fill="#67C6EF"/>
<path transform="translate(1329,1174)" d="m0 0 2 3 2 5-7-1 1-4z" fill="#CF6429"/>
<path transform="translate(530,1131)" d="m0 0 6 2 4 4-6-1-5-4z" fill="#44A4E5"/>
<path transform="translate(438,1006)" d="m0 0h3l5 7-1 3-4-4-1-4h-2z" fill="#2E303A"/>
<path transform="translate(1514,917)" d="m0 0 16 2v1h-18z" fill="#E26333"/>
<path transform="translate(1349,900)" d="m0 0h1l1 6-2 9h-1l-1-7z" fill="#F07D3B"/>
<path transform="translate(343,848)" d="m0 0 2 3 1 5-3 1v-3h-3l1-4h2z" fill="#2F303A"/>
<path transform="translate(607,753)" d="m0 0h3l2 3-1 6-3-2v-3h-2z" fill="#E1752D"/>
<path transform="translate(678,641)" d="m0 0h2l-2 4-4 4-3-1 2-1 2-4h3z" fill="#DF782D"/>
<path transform="translate(1081,628)" d="m0 0 4 2 8 7-1 2-10-8z" fill="#E96E34"/>
<path transform="translate(303,614)" d="m0 0h1l-1 8-3 7-1-3 3-10z" fill="#30313A"/>
<path transform="translate(1326,457)" d="m0 0v3l-2 3h-2l-2 4-4 2 2-4z" fill="#FB5B48"/>
</svg>
